<svg width="14" height="14" viewBox="0 0 14 14" fill="none" xmlns="http://www.w3.org/2000/svg">
<path d="M8.16671 11.0833C8.16671 10.439 7.64437 9.91667 7.00004 9.91667C6.35571 9.91667 5.83337 10.439 5.83337 11.0833C5.83337 11.7277 6.35571 12.25 7.00004 12.25C7.64437 12.25 8.16671 11.7277 8.16671 11.0833Z" fill="#565264"/>
<path d="M8.16671 6.99984C8.16671 6.35551 7.64437 5.83317 7.00004 5.83317C6.35571 5.83317 5.83337 6.35551 5.83337 6.99984C5.83337 7.64417 6.35571 8.1665 7.00004 8.1665C7.64437 8.1665 8.16671 7.64417 8.16671 6.99984Z" fill="#565264"/>
<path d="M8.16671 2.91683C8.16671 2.2725 7.64437 1.75016 7.00004 1.75016C6.35571 1.75016 5.83337 2.2725 5.83337 2.91683C5.83337 3.56116 6.35571 4.0835 7.00004 4.0835C7.64437 4.0835 8.16671 3.56116 8.16671 2.91683Z" fill="#565264"/>
</svg>
