<svg width="16" height="23" viewBox="0 0 16 23" fill="none" xmlns="http://www.w3.org/2000/svg">
<path d="M8.00018 21.9998V12.5499M3.98398 5.19995H12.0164M3.97173 5.23388L1.01164 14.0048C0.999396 14.041 0.996915 14.0797 1.00444 14.1171C1.01197 14.1546 1.02924 14.1893 1.05451 14.2179L7.85318 21.8353C7.87151 21.8562 7.89411 21.873 7.91946 21.8845C7.94482 21.896 7.97234 21.902 8.00018 21.902C8.02803 21.902 8.05555 21.896 8.0809 21.8845C8.10626 21.873 8.12885 21.8562 8.14718 21.8353L14.9459 14.2179C14.9711 14.1893 14.9884 14.1546 14.9959 14.1171C15.0035 14.0797 15.001 14.041 14.9887 14.0048L12.0286 5.2339C12.0206 5.21146 12.0165 5.18783 12.0164 5.16401V1.21C12.017 1.18305 12.0124 1.15623 12.0027 1.13108C11.9929 1.10594 11.9784 1.08295 11.9598 1.06345C11.9411 1.04394 11.9189 1.0283 11.8942 1.01741C11.8695 1.00652 11.843 1.00061 11.816 1H4.18435C4.1574 1.00061 4.13083 1.00652 4.10617 1.01741C4.0815 1.0283 4.05923 1.04394 4.04062 1.06345C4.02201 1.08295 4.00742 1.10594 3.9977 1.13108C3.98799 1.15623 3.98332 1.18305 3.98398 1.21V5.16398C3.98386 5.1878 3.97972 5.21143 3.97173 5.23388Z" stroke="#8484AA" stroke-width="2" stroke-linecap="round" stroke-linejoin="round"/>
</svg>
