<svg width="26" height="26" viewBox="0 0 26 26" fill="none" xmlns="http://www.w3.org/2000/svg">
<mask id="path-1-outside-1_1235_26346" maskUnits="userSpaceOnUse" x="0" y="0" width="26" height="26" fill="black">
<rect fill="white" width="26" height="26"/>
<path d="M25 13C25 19.6274 19.6274 25 13 25C6.37258 25 1 19.6274 1 13C1 6.37258 6.37258 1 13 1C19.6274 1 25 6.37258 25 13ZM2.2 13C2.2 18.9647 7.03533 23.8 13 23.8C18.9647 23.8 23.8 18.9647 23.8 13C23.8 7.03533 18.9647 2.2 13 2.2C7.03533 2.2 2.2 7.03533 2.2 13Z"/>
</mask>
<path d="M25 13C25 19.6274 19.6274 25 13 25C6.37258 25 1 19.6274 1 13C1 6.37258 6.37258 1 13 1C19.6274 1 25 6.37258 25 13ZM2.2 13C2.2 18.9647 7.03533 23.8 13 23.8C18.9647 23.8 23.8 18.9647 23.8 13C23.8 7.03533 18.9647 2.2 13 2.2C7.03533 2.2 2.2 7.03533 2.2 13Z" fill="#F24665"/>
<path d="M25 13C25 19.6274 19.6274 25 13 25C6.37258 25 1 19.6274 1 13C1 6.37258 6.37258 1 13 1C19.6274 1 25 6.37258 25 13ZM2.2 13C2.2 18.9647 7.03533 23.8 13 23.8C18.9647 23.8 23.8 18.9647 23.8 13C23.8 7.03533 18.9647 2.2 13 2.2C7.03533 2.2 2.2 7.03533 2.2 13Z" stroke="#F24665" stroke-width="2" stroke-linecap="round" mask="url(#path-1-outside-1_1235_26346)"/>
<path d="M9 9L17 17" stroke="#F24665" stroke-width="2.2" stroke-linecap="round" stroke-linejoin="round"/>
<path d="M9 17L17 9" stroke="#F24665" stroke-width="2.2" stroke-linecap="round" stroke-linejoin="round"/>
</svg>
