<svg width="12" height="12" viewBox="0 0 12 12" fill="none" xmlns="http://www.w3.org/2000/svg">
<path d="M6 11.375C3.035 11.375 0.625 8.965 0.625 6C0.625 3.035 3.035 0.625 6 0.625C8.965 0.625 11.375 3.035 11.375 6C11.375 8.965 8.965 11.375 6 11.375ZM6 1.375C3.45 1.375 1.375 3.45 1.375 6C1.375 8.55 3.45 10.625 6 10.625C8.55 10.625 10.625 8.55 10.625 6C10.625 3.45 8.55 1.375 6 1.375Z" fill="#9869FC"/>
<path d="M4.49914 10.875H3.99914C3.79414 10.875 3.62414 10.705 3.62414 10.5C3.62414 10.295 3.78414 10.13 3.98914 10.125C3.20414 7.445 3.20414 4.555 3.98914 1.875C3.78414 1.87 3.62414 1.705 3.62414 1.5C3.62414 1.295 3.79414 1.125 3.99914 1.125H4.49914C4.61914 1.125 4.73414 1.185 4.80414 1.28C4.87414 1.38 4.89414 1.505 4.85414 1.62C3.91414 4.445 3.91414 7.555 4.85414 10.385C4.89414 10.5 4.87414 10.625 4.80414 10.725C4.73414 10.815 4.61914 10.875 4.49914 10.875Z" fill="#9869FC"/>
<path d="M7.49922 10.875C7.45922 10.875 7.41922 10.87 7.37922 10.855C7.18422 10.79 7.07422 10.575 7.14422 10.38C8.08422 7.555 8.08422 4.445 7.14422 1.615C7.07922 1.42 7.18422 1.205 7.37922 1.14C7.57922 1.075 7.78922 1.18 7.85422 1.375C8.84922 4.355 8.84922 7.635 7.85422 10.61C7.80422 10.775 7.65422 10.875 7.49922 10.875Z" fill="#9869FC"/>
<path d="M6 8.59999C4.605 8.59999 3.215 8.40499 1.875 8.00999C1.87 8.20999 1.705 8.37499 1.5 8.37499C1.295 8.37499 1.125 8.20499 1.125 7.99999V7.49999C1.125 7.37999 1.185 7.26499 1.28 7.19499C1.38 7.12499 1.505 7.10499 1.62 7.14499C4.445 8.08499 7.56 8.08499 10.385 7.14499C10.5 7.10499 10.625 7.12499 10.725 7.19499C10.825 7.26499 10.88 7.37999 10.88 7.49999V7.99999C10.88 8.20499 10.71 8.37499 10.505 8.37499C10.3 8.37499 10.135 8.21499 10.13 8.00999C8.785 8.40499 7.395 8.59999 6 8.59999Z" fill="#9869FC"/>
<path d="M10.4999 4.87499C10.4599 4.87499 10.4199 4.86999 10.3799 4.85499C7.55489 3.91499 4.43989 3.91499 1.61489 4.85499C1.41489 4.91999 1.20489 4.81499 1.13989 4.61999C1.07989 4.41999 1.18489 4.20999 1.37989 4.14499C4.35989 3.14999 7.63989 3.14999 10.6149 4.14499C10.8099 4.20999 10.9199 4.42499 10.8499 4.61999C10.8049 4.77499 10.6549 4.87499 10.4999 4.87499Z" fill="#9869FC"/>
</svg>
