<svg width="26" height="26" viewBox="0 0 26 26" fill="none" xmlns="http://www.w3.org/2000/svg">
<mask id="path-1-outside-1_1128_26236" maskUnits="userSpaceOnUse" x="0" y="0" width="26" height="26" fill="black">
<rect fill="white" width="26" height="26"/>
<path d="M25 13C25 19.6274 19.6274 25 13 25C6.37258 25 1 19.6274 1 13C1 6.37258 6.37258 1 13 1C19.6274 1 25 6.37258 25 13ZM2.2 13C2.2 18.9647 7.03533 23.8 13 23.8C18.9647 23.8 23.8 18.9647 23.8 13C23.8 7.03533 18.9647 2.2 13 2.2C7.03533 2.2 2.2 7.03533 2.2 13Z"/>
</mask>
<path d="M25 13C25 19.6274 19.6274 25 13 25C6.37258 25 1 19.6274 1 13C1 6.37258 6.37258 1 13 1C19.6274 1 25 6.37258 25 13ZM2.2 13C2.2 18.9647 7.03533 23.8 13 23.8C18.9647 23.8 23.8 18.9647 23.8 13C23.8 7.03533 18.9647 2.2 13 2.2C7.03533 2.2 2.2 7.03533 2.2 13Z" fill="#C1C1C1" fill-opacity="0.5"/>
<path d="M25 13C25 19.6274 19.6274 25 13 25C6.37258 25 1 19.6274 1 13C1 6.37258 6.37258 1 13 1C19.6274 1 25 6.37258 25 13ZM2.2 13C2.2 18.9647 7.03533 23.8 13 23.8C18.9647 23.8 23.8 18.9647 23.8 13C23.8 7.03533 18.9647 2.2 13 2.2C7.03533 2.2 2.2 7.03533 2.2 13Z" stroke="#C1C1C1" stroke-opacity="0.5" stroke-width="2" stroke-linecap="round" mask="url(#path-1-outside-1_1128_26236)"/>
<path d="M13.8259 17C13.7459 17 13.6779 16.972 13.6219 16.916C13.5659 16.86 13.5379 16.792 13.5379 16.712V15.176H9.73394C9.64594 15.176 9.57394 15.148 9.51794 15.092C9.46994 15.036 9.44594 14.968 9.44594 14.888V14.072C9.44594 14.024 9.45394 13.968 9.46994 13.904C9.49394 13.832 9.52994 13.768 9.57794 13.712L13.1179 8.804C13.2219 8.668 13.3699 8.6 13.5619 8.6H14.8699C14.9499 8.6 15.0179 8.628 15.0739 8.684C15.1299 8.74 15.1579 8.808 15.1579 8.888V13.76H16.2259C16.3219 13.76 16.3939 13.788 16.4419 13.844C16.4979 13.892 16.5259 13.96 16.5259 14.048V14.888C16.5259 14.968 16.4979 15.036 16.4419 15.092C16.3859 15.148 16.3179 15.176 16.2379 15.176H15.1579V16.712C15.1579 16.792 15.1299 16.86 15.0739 16.916C15.0179 16.972 14.9499 17 14.8699 17H13.8259ZM11.1139 13.808H13.5739V10.34L11.1139 13.808Z" fill="black"/>
</svg>
