<svg width="26" height="26" viewBox="0 0 26 26" fill="none" xmlns="http://www.w3.org/2000/svg">
<mask id="path-1-outside-1_1413_25270" maskUnits="userSpaceOnUse" x="0" y="0" width="26" height="26" fill="black">
<rect fill="white" width="26" height="26"/>
<path d="M25 13C25 19.6274 19.6274 25 13 25C6.37258 25 1 19.6274 1 13C1 6.37258 6.37258 1 13 1C19.6274 1 25 6.37258 25 13ZM2.2 13C2.2 18.9647 7.03533 23.8 13 23.8C18.9647 23.8 23.8 18.9647 23.8 13C23.8 7.03533 18.9647 2.2 13 2.2C7.03533 2.2 2.2 7.03533 2.2 13Z"/>
</mask>
<path d="M25 13C25 19.6274 19.6274 25 13 25C6.37258 25 1 19.6274 1 13C1 6.37258 6.37258 1 13 1C19.6274 1 25 6.37258 25 13ZM2.2 13C2.2 18.9647 7.03533 23.8 13 23.8C18.9647 23.8 23.8 18.9647 23.8 13C23.8 7.03533 18.9647 2.2 13 2.2C7.03533 2.2 2.2 7.03533 2.2 13Z" fill="#C1C1C1" fill-opacity="0.5"/>
<path d="M25 13C25 19.6274 19.6274 25 13 25C6.37258 25 1 19.6274 1 13C1 6.37258 6.37258 1 13 1C19.6274 1 25 6.37258 25 13ZM2.2 13C2.2 18.9647 7.03533 23.8 13 23.8C18.9647 23.8 23.8 18.9647 23.8 13C23.8 7.03533 18.9647 2.2 13 2.2C7.03533 2.2 2.2 7.03533 2.2 13Z" stroke="#C1C1C1" stroke-opacity="0.5" stroke-width="2" stroke-linecap="round" mask="url(#path-1-outside-1_1413_25270)"/>
<path d="M12.9513 17.132C12.2633 17.132 11.6833 17.02 11.2113 16.796C10.7393 16.564 10.3793 16.264 10.1313 15.896C9.8913 15.528 9.7633 15.136 9.7473 14.72C9.7393 14.648 9.7593 14.592 9.8073 14.552C9.8633 14.504 9.9273 14.48 9.9993 14.48H11.1153C11.2033 14.48 11.2753 14.5 11.3313 14.54C11.3953 14.572 11.4433 14.632 11.4753 14.72C11.5553 14.96 11.6673 15.156 11.8113 15.308C11.9633 15.46 12.1353 15.572 12.3273 15.644C12.5273 15.716 12.7353 15.752 12.9513 15.752C13.2393 15.752 13.4993 15.696 13.7313 15.584C13.9713 15.464 14.1633 15.288 14.3073 15.056C14.4513 14.824 14.5233 14.54 14.5233 14.204C14.5233 13.908 14.4553 13.652 14.3193 13.436C14.1833 13.22 13.9953 13.052 13.7553 12.932C13.5233 12.804 13.2553 12.74 12.9513 12.74C12.7273 12.74 12.5433 12.768 12.3993 12.824C12.2553 12.88 12.1313 12.944 12.0273 13.016C11.9313 13.088 11.8433 13.152 11.7633 13.208C11.6913 13.264 11.6073 13.292 11.5113 13.292H10.4073C10.3353 13.292 10.2713 13.268 10.2153 13.22C10.1673 13.164 10.1433 13.1 10.1433 13.028L10.5633 8.924C10.5713 8.82 10.6073 8.74 10.6713 8.684C10.7353 8.628 10.8113 8.6 10.8993 8.6H15.4113C15.4913 8.6 15.5593 8.628 15.6153 8.684C15.6713 8.74 15.6993 8.808 15.6993 8.888V9.692C15.6993 9.772 15.6713 9.84 15.6153 9.896C15.5593 9.952 15.4913 9.98 15.4113 9.98H11.9433L11.7513 11.936C11.8953 11.84 12.0873 11.748 12.3273 11.66C12.5673 11.572 12.8993 11.528 13.3233 11.528C13.7073 11.528 14.0713 11.592 14.4153 11.72C14.7673 11.84 15.0793 12.02 15.3513 12.26C15.6233 12.492 15.8353 12.776 15.9873 13.112C16.1473 13.44 16.2273 13.816 16.2273 14.24C16.2273 14.824 16.0913 15.332 15.8193 15.764C15.5473 16.196 15.1673 16.532 14.6793 16.772C14.1913 17.012 13.6153 17.132 12.9513 17.132Z" fill="black"/>
</svg>
