<svg width="26" height="26" viewBox="0 0 26 26" fill="none" xmlns="http://www.w3.org/2000/svg">
<mask id="path-1-outside-1_1128_26236" maskUnits="userSpaceOnUse" x="0" y="0" width="26" height="26" fill="black">
<rect fill="white" width="26" height="26"/>
<path d="M25 13C25 19.6274 19.6274 25 13 25C6.37258 25 1 19.6274 1 13C1 6.37258 6.37258 1 13 1C19.6274 1 25 6.37258 25 13ZM2.2 13C2.2 18.9647 7.03533 23.8 13 23.8C18.9647 23.8 23.8 18.9647 23.8 13C23.8 7.03533 18.9647 2.2 13 2.2C7.03533 2.2 2.2 7.03533 2.2 13Z"/>
</mask>
<path d="M25 13C25 19.6274 19.6274 25 13 25C6.37258 25 1 19.6274 1 13C1 6.37258 6.37258 1 13 1C19.6274 1 25 6.37258 25 13ZM2.2 13C2.2 18.9647 7.03533 23.8 13 23.8C18.9647 23.8 23.8 18.9647 23.8 13C23.8 7.03533 18.9647 2.2 13 2.2C7.03533 2.2 2.2 7.03533 2.2 13Z" fill="#C1C1C1" fill-opacity="0.5"/>
<path d="M25 13C25 19.6274 19.6274 25 13 25C6.37258 25 1 19.6274 1 13C1 6.37258 6.37258 1 13 1C19.6274 1 25 6.37258 25 13ZM2.2 13C2.2 18.9647 7.03533 23.8 13 23.8C18.9647 23.8 23.8 18.9647 23.8 13C23.8 7.03533 18.9647 2.2 13 2.2C7.03533 2.2 2.2 7.03533 2.2 13Z" stroke="#C1C1C1" stroke-opacity="0.5" stroke-width="2" stroke-linecap="round" mask="url(#path-1-outside-1_1128_26236)"/>
<path d="M13.5467 17C13.4587 17 13.3867 16.972 13.3307 16.916C13.2827 16.86 13.2587 16.792 13.2587 16.712V10.496L11.4347 11.9C11.3627 11.948 11.2907 11.968 11.2187 11.96C11.1467 11.944 11.0827 11.9 11.0267 11.828L10.5227 11.18C10.4747 11.108 10.4547 11.032 10.4627 10.952C10.4787 10.872 10.5227 10.808 10.5947 10.76L13.2827 8.684C13.3307 8.644 13.3787 8.62 13.4267 8.612C13.4747 8.604 13.5267 8.6 13.5827 8.6H14.6387C14.7187 8.6 14.7867 8.628 14.8427 8.684C14.8987 8.74 14.9267 8.808 14.9267 8.888V16.712C14.9267 16.792 14.8987 16.86 14.8427 16.916C14.7867 16.972 14.7187 17 14.6387 17H13.5467Z" fill="black"/>
</svg>
