<svg width="26" height="26" viewBox="0 0 26 26" fill="none" xmlns="http://www.w3.org/2000/svg">
<mask id="path-1-outside-1_1128_26236" maskUnits="userSpaceOnUse" x="0" y="0" width="26" height="26" fill="black">
<rect fill="white" width="26" height="26"/>
<path d="M25 13C25 19.6274 19.6274 25 13 25C6.37258 25 1 19.6274 1 13C1 6.37258 6.37258 1 13 1C19.6274 1 25 6.37258 25 13ZM2.2 13C2.2 18.9647 7.03533 23.8 13 23.8C18.9647 23.8 23.8 18.9647 23.8 13C23.8 7.03533 18.9647 2.2 13 2.2C7.03533 2.2 2.2 7.03533 2.2 13Z"/>
</mask>
<path d="M25 13C25 19.6274 19.6274 25 13 25C6.37258 25 1 19.6274 1 13C1 6.37258 6.37258 1 13 1C19.6274 1 25 6.37258 25 13ZM2.2 13C2.2 18.9647 7.03533 23.8 13 23.8C18.9647 23.8 23.8 18.9647 23.8 13C23.8 7.03533 18.9647 2.2 13 2.2C7.03533 2.2 2.2 7.03533 2.2 13Z" fill="#C1C1C1" fill-opacity="0.5"/>
<path d="M25 13C25 19.6274 19.6274 25 13 25C6.37258 25 1 19.6274 1 13C1 6.37258 6.37258 1 13 1C19.6274 1 25 6.37258 25 13ZM2.2 13C2.2 18.9647 7.03533 23.8 13 23.8C18.9647 23.8 23.8 18.9647 23.8 13C23.8 7.03533 18.9647 2.2 13 2.2C7.03533 2.2 2.2 7.03533 2.2 13Z" stroke="#C1C1C1" stroke-opacity="0.5" stroke-width="2" stroke-linecap="round" mask="url(#path-1-outside-1_1128_26236)"/>
<path d="M10.1132 17C10.0332 17 9.96516 16.972 9.90916 16.916C9.85316 16.86 9.82516 16.792 9.82516 16.712V16.1C9.82516 16.028 9.84116 15.944 9.87316 15.848C9.91316 15.744 9.99716 15.64 10.1252 15.536L12.0212 13.652C12.5492 13.236 12.9732 12.884 13.2932 12.596C13.6212 12.3 13.8572 12.032 14.0012 11.792C14.1532 11.544 14.2292 11.3 14.2292 11.06C14.2292 10.7 14.1292 10.408 13.9292 10.184C13.7372 9.96 13.4292 9.848 13.0052 9.848C12.7252 9.848 12.4892 9.908 12.2972 10.028C12.1052 10.14 11.9532 10.292 11.8412 10.484C11.7372 10.676 11.6652 10.888 11.6252 11.12C11.6092 11.224 11.5652 11.296 11.4932 11.336C11.4212 11.376 11.3492 11.396 11.2772 11.396H10.2092C10.1372 11.396 10.0772 11.372 10.0292 11.324C9.98116 11.276 9.95716 11.22 9.95716 11.156C9.96516 10.812 10.0372 10.48 10.1732 10.16C10.3092 9.832 10.5052 9.544 10.7612 9.296C11.0252 9.04 11.3452 8.836 11.7212 8.684C12.0972 8.532 12.5212 8.456 12.9932 8.456C13.6572 8.456 14.2052 8.568 14.6372 8.792C15.0772 9.016 15.4052 9.32 15.6212 9.704C15.8452 10.088 15.9572 10.52 15.9572 11C15.9572 11.376 15.8852 11.724 15.7412 12.044C15.5972 12.356 15.3892 12.66 15.1172 12.956C14.8452 13.244 14.5172 13.54 14.1332 13.844L12.4292 15.572H15.8492C15.9372 15.572 16.0052 15.6 16.0532 15.656C16.1092 15.704 16.1372 15.772 16.1372 15.86V16.712C16.1372 16.792 16.1092 16.86 16.0532 16.916C16.0052 16.972 15.9372 17 15.8492 17H10.1132Z" fill="black"/>
</svg>
