<svg width="26" height="26" viewBox="0 0 26 26" fill="none" xmlns="http://www.w3.org/2000/svg">
<mask id="path-1-outside-1_1128_26236" maskUnits="userSpaceOnUse" x="0" y="0" width="26" height="26" fill="black">
<rect fill="white" width="26" height="26"/>
<path d="M25 13C25 19.6274 19.6274 25 13 25C6.37258 25 1 19.6274 1 13C1 6.37258 6.37258 1 13 1C19.6274 1 25 6.37258 25 13ZM2.2 13C2.2 18.9647 7.03533 23.8 13 23.8C18.9647 23.8 23.8 18.9647 23.8 13C23.8 7.03533 18.9647 2.2 13 2.2C7.03533 2.2 2.2 7.03533 2.2 13Z"/>
</mask>
<path d="M25 13C25 19.6274 19.6274 25 13 25C6.37258 25 1 19.6274 1 13C1 6.37258 6.37258 1 13 1C19.6274 1 25 6.37258 25 13ZM2.2 13C2.2 18.9647 7.03533 23.8 13 23.8C18.9647 23.8 23.8 18.9647 23.8 13C23.8 7.03533 18.9647 2.2 13 2.2C7.03533 2.2 2.2 7.03533 2.2 13Z" fill="#C1C1C1" fill-opacity="0.5"/>
<path d="M25 13C25 19.6274 19.6274 25 13 25C6.37258 25 1 19.6274 1 13C1 6.37258 6.37258 1 13 1C19.6274 1 25 6.37258 25 13ZM2.2 13C2.2 18.9647 7.03533 23.8 13 23.8C18.9647 23.8 23.8 18.9647 23.8 13C23.8 7.03533 18.9647 2.2 13 2.2C7.03533 2.2 2.2 7.03533 2.2 13Z" stroke="#C1C1C1" stroke-opacity="0.5" stroke-width="2" stroke-linecap="round" mask="url(#path-1-outside-1_1128_26236)"/>
<path d="M12.9527 17.12C12.3927 17.12 11.9087 17.052 11.5007 16.916C11.0927 16.78 10.7527 16.604 10.4807 16.388C10.2167 16.164 10.0167 15.924 9.8807 15.668C9.7447 15.404 9.6727 15.144 9.6647 14.888C9.6647 14.816 9.6887 14.76 9.7367 14.72C9.7927 14.672 9.8567 14.648 9.9287 14.648H11.0087C11.0887 14.648 11.1567 14.664 11.2127 14.696C11.2687 14.728 11.3167 14.792 11.3567 14.888C11.4287 15.104 11.5447 15.276 11.7047 15.404C11.8727 15.532 12.0647 15.624 12.2807 15.68C12.4967 15.728 12.7247 15.752 12.9647 15.752C13.4447 15.752 13.8247 15.64 14.1047 15.416C14.3927 15.184 14.5367 14.856 14.5367 14.432C14.5367 14.008 14.4047 13.704 14.1407 13.52C13.8767 13.328 13.5087 13.232 13.0367 13.232H11.8007C11.7127 13.232 11.6407 13.208 11.5847 13.16C11.5287 13.104 11.5007 13.032 11.5007 12.944V12.44C11.5007 12.36 11.5167 12.292 11.5487 12.236C11.5887 12.172 11.6287 12.12 11.6687 12.08L13.8167 9.98H10.3847C10.2967 9.98 10.2247 9.952 10.1687 9.896C10.1207 9.84 10.0967 9.772 10.0967 9.692V8.9C10.0967 8.812 10.1207 8.74 10.1687 8.684C10.2247 8.628 10.2967 8.6 10.3847 8.6H15.5327C15.6207 8.6 15.6927 8.628 15.7487 8.684C15.8047 8.74 15.8327 8.812 15.8327 8.9V9.62C15.8327 9.692 15.8167 9.756 15.7847 9.812C15.7527 9.868 15.7167 9.916 15.6767 9.956L13.6007 12.092L13.7447 12.104C14.2327 12.144 14.6647 12.256 15.0407 12.44C15.4247 12.616 15.7207 12.876 15.9287 13.22C16.1447 13.564 16.2527 13.996 16.2527 14.516C16.2527 15.06 16.1087 15.528 15.8207 15.92C15.5407 16.304 15.1527 16.6 14.6567 16.808C14.1607 17.016 13.5927 17.12 12.9527 17.12Z" fill="black"/>
</svg>
