<svg width="26" height="26" viewBox="0 0 26 26" fill="none" xmlns="http://www.w3.org/2000/svg">
<mask id="path-1-outside-1_1413_25270" maskUnits="userSpaceOnUse" x="0" y="0" width="26" height="26" fill="black">
<rect fill="white" width="26" height="26"/>
<path d="M25 13C25 19.6274 19.6274 25 13 25C6.37258 25 1 19.6274 1 13C1 6.37258 6.37258 1 13 1C19.6274 1 25 6.37258 25 13ZM2.2 13C2.2 18.9647 7.03533 23.8 13 23.8C18.9647 23.8 23.8 18.9647 23.8 13C23.8 7.03533 18.9647 2.2 13 2.2C7.03533 2.2 2.2 7.03533 2.2 13Z"/>
</mask>
<path d="M25 13C25 19.6274 19.6274 25 13 25C6.37258 25 1 19.6274 1 13C1 6.37258 6.37258 1 13 1C19.6274 1 25 6.37258 25 13ZM2.2 13C2.2 18.9647 7.03533 23.8 13 23.8C18.9647 23.8 23.8 18.9647 23.8 13C23.8 7.03533 18.9647 2.2 13 2.2C7.03533 2.2 2.2 7.03533 2.2 13Z" fill="#C1C1C1" fill-opacity="0.5"/>
<path d="M25 13C25 19.6274 19.6274 25 13 25C6.37258 25 1 19.6274 1 13C1 6.37258 6.37258 1 13 1C19.6274 1 25 6.37258 25 13ZM2.2 13C2.2 18.9647 7.03533 23.8 13 23.8C18.9647 23.8 23.8 18.9647 23.8 13C23.8 7.03533 18.9647 2.2 13 2.2C7.03533 2.2 2.2 7.03533 2.2 13Z" stroke="#C1C1C1" stroke-opacity="0.5" stroke-width="2" stroke-linecap="round" mask="url(#path-1-outside-1_1413_25270)"/>
<path d="M13.0663 17.12C12.3783 17.12 11.7863 16.992 11.2903 16.736C10.7943 16.472 10.4103 16.12 10.1383 15.68C9.86628 15.232 9.73028 14.732 9.73028 14.18C9.73028 13.932 9.76228 13.692 9.82628 13.46C9.89028 13.228 9.97428 13.008 10.0783 12.8C10.1823 12.592 10.2823 12.408 10.3783 12.248C10.4823 12.08 10.5743 11.948 10.6543 11.852L12.8503 8.84C12.8823 8.8 12.9303 8.752 12.9943 8.696C13.0583 8.632 13.1463 8.6 13.2583 8.6H14.3743C14.4463 8.6 14.5063 8.628 14.5543 8.684C14.6023 8.732 14.6263 8.792 14.6263 8.864C14.6263 8.896 14.6183 8.928 14.6023 8.96C14.5943 8.984 14.5823 9.004 14.5663 9.02L12.8863 11.348C12.9583 11.324 13.0423 11.308 13.1383 11.3C13.2343 11.292 13.3223 11.288 13.4023 11.288C13.8023 11.296 14.1823 11.376 14.5423 11.528C14.9023 11.672 15.2183 11.872 15.4903 12.128C15.7623 12.384 15.9743 12.684 16.1263 13.028C16.2863 13.372 16.3663 13.748 16.3663 14.156C16.3663 14.684 16.2343 15.176 15.9703 15.632C15.7063 16.08 15.3263 16.44 14.8303 16.712C14.3423 16.984 13.7543 17.12 13.0663 17.12ZM13.0543 15.74C13.3423 15.74 13.6063 15.68 13.8463 15.56C14.0943 15.44 14.2943 15.264 14.4463 15.032C14.5983 14.8 14.6743 14.512 14.6743 14.168C14.6743 13.832 14.5983 13.548 14.4463 13.316C14.2943 13.084 14.0943 12.908 13.8463 12.788C13.6063 12.668 13.3423 12.608 13.0543 12.608C12.7663 12.608 12.4983 12.668 12.2503 12.788C12.0103 12.908 11.8143 13.084 11.6623 13.316C11.5103 13.548 11.4343 13.832 11.4343 14.168C11.4343 14.512 11.5103 14.8 11.6623 15.032C11.8143 15.264 12.0103 15.44 12.2503 15.56C12.4983 15.68 12.7663 15.74 13.0543 15.74Z" fill="black"/>
</svg>
