<svg width="21" height="21" viewBox="0 0 21 21" fill="none" xmlns="http://www.w3.org/2000/svg">
<path fill-rule="evenodd" clip-rule="evenodd" d="M7.27014 0H18.0386C19.6741 0 21 1.32583 21 2.96133V13.7298C21 15.3653 19.6741 16.6911 18.0386 16.6911H16.6911V18.1911C16.6911 19.7416 15.4342 20.9986 13.8836 20.9986H4.03818C1.80795 20.9986 0 19.1906 0 16.9604V7.11495C0 5.56441 1.25696 4.30745 2.8075 4.30745H4.30881V2.96133C4.30881 1.32583 5.63465 0 7.27014 0ZM4.30881 5.92272H2.8075C2.14905 5.92272 1.61527 6.4565 1.61527 7.11495V16.9604C1.61527 18.2985 2.70004 19.3833 4.03818 19.3833H13.8836C14.5421 19.3833 15.0759 18.8495 15.0759 18.1911V16.6911H7.27014C5.63465 16.6911 4.30881 15.3653 4.30881 13.7298V5.92272ZM7.27086 1.61534C6.52745 1.61534 5.9248 2.21799 5.9248 2.9614V13.7299C5.9248 14.4733 6.52745 15.0759 7.27086 15.0759H18.0393C18.7827 15.0759 19.3854 14.4733 19.3854 13.7299V2.9614C19.3854 2.21799 18.7827 1.61534 18.0393 1.61534H7.27086ZM9.95976 5.38429H15.344C15.79 5.38429 16.1516 5.74588 16.1516 6.19193C16.1516 6.63797 15.79 6.99956 15.344 6.99956H9.95976C9.51371 6.99956 9.15212 6.63797 9.15212 6.19193C9.15212 5.74588 9.51371 5.38429 9.95976 5.38429ZM15.344 9.69162H9.95976C9.51371 9.69162 9.15212 10.0532 9.15212 10.4993C9.15212 10.9453 9.51371 11.3069 9.95976 11.3069H15.344C15.79 11.3069 16.1516 10.9453 16.1516 10.4993C16.1516 10.0532 15.79 9.69162 15.344 9.69162Z" fill="url(#paint0_linear_2_4113)"/>
<defs>
<linearGradient id="paint0_linear_2_4113" x1="4.32353" y1="-1.99718e-06" x2="16.7835" y2="0.747759" gradientUnits="userSpaceOnUse">
<stop stop-color="#68A4FF"/>
<stop offset="0.791667" stop-color="#8350F0"/>
</linearGradient>
</defs>
</svg>
