<svg width="24" height="24" viewBox="0 0 24 24" fill="none" xmlns="http://www.w3.org/2000/svg">
<path fill-rule="evenodd" clip-rule="evenodd" d="M10.077 13.5713L2.09091 9.3373C0.636689 8.56619 0.636689 6.48276 2.09091 5.71055L10.077 1.47768C11.2804 0.840773 12.7193 0.840773 13.9227 1.47768L21.9088 5.71055C23.3641 6.48276 23.3641 8.56619 21.9088 9.3373L13.8655 13.6274C12.6643 14.2654 11.2804 14.2082 10.077 13.5713Z" stroke="#8484AA" stroke-width="2" stroke-linecap="round"/>
<path d="M21.9087 14.6617C23.3641 15.4328 23.3641 17.5184 21.9087 18.2895L13.9226 22.5224C12.7192 23.1593 11.2804 23.1593 10.077 22.5224L2.09085 18.2895C0.636628 17.5184 0.636628 15.4328 2.09085 14.6617" stroke="#8484AA" stroke-width="2" stroke-linecap="round"/>
</svg>
