<svg width="32" height="24" viewBox="0 0 32 24" fill="none" xmlns="http://www.w3.org/2000/svg">
<path d="M26.9159 2.14651C24.9079 1.24091 22.7554 0.571559 20.5045 0.190945C20.4845 0.187096 20.4637 0.189576 20.4452 0.198042C20.4266 0.206507 20.4111 0.220539 20.4009 0.238193V0.238193C19.8756 1.16123 18.872 1.7313 17.8129 1.65238C16.6092 1.56269 15.4005 1.56256 14.1968 1.65198C13.1341 1.73093 12.1217 1.16264 11.5916 0.238193V0.238193C11.5815 0.220321 11.5661 0.205972 11.5476 0.197061C11.529 0.18815 11.5082 0.1851 11.4879 0.18832C9.23837 0.568934 7.08593 1.23829 5.07655 2.1452C5.05927 2.15245 5.04461 2.16482 5.03455 2.18064C0.950173 8.18515 -0.169357 14.0414 0.380565 19.8241C0.382095 19.8382 0.386491 19.8519 0.393486 19.8643C0.40048 19.8767 0.409927 19.8876 0.421251 19.8962C2.8052 21.6319 5.46417 22.954 8.28684 23.8074C8.30651 23.8134 8.32756 23.8134 8.34723 23.8073C8.36689 23.8013 8.38427 23.7894 8.39708 23.7733C9.00448 22.9609 9.54273 22.0991 10.0062 21.1969C10.0126 21.1846 10.0163 21.171 10.017 21.1571C10.0178 21.1432 10.0155 21.1293 10.0104 21.1164C10.0053 21.1034 9.99747 21.0917 9.98746 21.0821C9.97744 21.0724 9.96547 21.065 9.95235 21.0604C9.10451 20.7411 8.28301 20.3558 7.49542 19.9081C7.48127 19.9 7.46934 19.8885 7.46072 19.8747C7.45209 19.8609 7.44703 19.8451 7.44599 19.8289C7.44494 19.8126 7.44796 19.7963 7.45475 19.7815C7.46155 19.7667 7.47191 19.7538 7.48492 19.744C7.65029 19.6219 7.81566 19.4946 7.97316 19.3673C7.98733 19.3559 8.00441 19.3486 8.02249 19.3463C8.04056 19.344 8.05892 19.3467 8.07553 19.3542C13.2296 21.6694 18.8115 21.6694 23.9051 19.3542C23.9218 19.3463 23.9403 19.3432 23.9587 19.3452C23.977 19.3473 23.9944 19.3545 24.0088 19.366C24.1663 19.4946 24.3304 19.6219 24.4971 19.744C24.5102 19.7536 24.5207 19.7663 24.5277 19.781C24.5348 19.7957 24.538 19.8119 24.5372 19.8281C24.5365 19.8444 24.5317 19.8602 24.5233 19.8742C24.5149 19.8881 24.5032 19.8998 24.4892 19.9081C23.7043 20.3595 22.888 20.7415 22.0309 21.0591C22.0178 21.0639 22.0058 21.0714 21.9958 21.0812C21.9857 21.091 21.9779 21.1028 21.9728 21.1158C21.9677 21.1289 21.9655 21.1428 21.9662 21.1568C21.967 21.1708 21.9707 21.1845 21.9771 21.1969C22.4496 22.0986 22.9903 22.9569 23.5849 23.7719C23.5973 23.7887 23.6145 23.8012 23.6342 23.8078C23.6539 23.8143 23.6752 23.8147 23.6951 23.8087C26.5226 22.9577 29.186 21.635 31.5725 19.8962C31.5842 19.8881 31.594 19.8776 31.6012 19.8654C31.6084 19.8531 31.613 19.8395 31.6145 19.8254C32.2708 13.1397 30.5147 7.33074 26.9566 2.18326C26.9479 2.16653 26.9334 2.15349 26.9159 2.14651ZM10.7766 16.3027C9.22525 16.3027 7.9456 14.8997 7.9456 13.1791C7.9456 11.4571 9.20031 10.0554 10.7766 10.0554C12.3647 10.0554 13.6325 11.4689 13.6076 13.1791C13.6076 14.901 12.3528 16.3027 10.7766 16.3027ZM21.2435 16.3027C19.6908 16.3027 18.4125 14.8997 18.4125 13.1791C18.4125 11.4571 19.6659 10.0554 21.2435 10.0554C22.8315 10.0554 24.0994 11.4689 24.0744 13.1791C24.0744 14.901 22.8329 16.3027 21.2435 16.3027Z" fill="#F9F7FF"/>
</svg>
