<svg width="54" height="54" viewBox="0 0 54 54" fill="none" xmlns="http://www.w3.org/2000/svg">
<rect width="54" height="54" rx="27" fill="url(#paint0_linear_27_34051)" fill-opacity="0.5"/>
<path d="M37.9157 17.1465C35.9077 16.2409 33.7552 15.5716 31.5043 15.1909C31.4843 15.1871 31.4635 15.1896 31.445 15.198C31.4264 15.2065 31.4109 15.2205 31.4007 15.2382C30.8754 16.1612 29.8718 16.7313 28.8127 16.6524C27.609 16.5627 26.4003 16.5626 25.1966 16.652C24.1339 16.7309 23.1215 16.1626 22.5914 15.2382C22.5813 15.2203 22.5659 15.206 22.5474 15.1971C22.5288 15.1881 22.508 15.1851 22.4877 15.1883C20.2382 15.5689 18.0857 16.2383 16.0764 17.1452C16.0591 17.1525 16.0444 17.1648 16.0344 17.1806C11.95 23.1852 10.8304 29.0414 11.3804 34.8241C11.3819 34.8382 11.3863 34.8519 11.3933 34.8643C11.4003 34.8767 11.4097 34.8876 11.4211 34.8962C13.805 36.6319 16.464 37.954 19.2866 38.8074C19.3063 38.8134 19.3274 38.8134 19.347 38.8073C19.3667 38.8013 19.3841 38.7894 19.3969 38.7733C20.0043 37.9609 20.5425 37.0991 21.006 36.1969C21.0124 36.1846 21.0161 36.171 21.0168 36.1571C21.0176 36.1432 21.0153 36.1293 21.0102 36.1164C21.0051 36.1034 20.9973 36.0917 20.9873 36.0821C20.9772 36.0724 20.9653 36.065 20.9522 36.0604C20.1043 35.7411 19.2828 35.3558 18.4952 34.9081C18.4811 34.9 18.4691 34.8885 18.4605 34.8747C18.4519 34.8609 18.4468 34.8451 18.4458 34.8289C18.4447 34.8126 18.4478 34.7963 18.4546 34.7815C18.4614 34.7667 18.4717 34.7538 18.4847 34.744C18.6501 34.6219 18.8155 34.4946 18.973 34.3673C18.9871 34.3559 19.0042 34.3486 19.0223 34.3463C19.0404 34.344 19.0587 34.3467 19.0753 34.3542C24.2294 36.6694 29.8113 36.6694 34.9049 34.3542C34.9216 34.3463 34.9401 34.3432 34.9585 34.3452C34.9768 34.3473 34.9942 34.3545 35.0086 34.366C35.1661 34.4946 35.3302 34.6219 35.4969 34.744C35.51 34.7536 35.5205 34.7663 35.5275 34.781C35.5346 34.7957 35.5378 34.8119 35.537 34.8281C35.5363 34.8444 35.5315 34.8602 35.5231 34.8742C35.5147 34.8881 35.503 34.8998 35.489 34.9081C34.7041 35.3595 33.8878 35.7415 33.0307 36.0591C33.0176 36.0639 33.0056 36.0714 32.9956 36.0812C32.9855 36.091 32.9777 36.1028 32.9726 36.1158C32.9675 36.1289 32.9653 36.1428 32.966 36.1568C32.9668 36.1708 32.9705 36.1845 32.9769 36.1969C33.4494 37.0986 33.9901 37.9569 34.5847 38.7719C34.5971 38.7887 34.6143 38.8012 34.634 38.8078C34.6537 38.8143 34.675 38.8147 34.6949 38.8087C37.5224 37.9578 40.1858 36.635 42.5723 34.8962C42.584 34.8881 42.5938 34.8776 42.601 34.8654C42.6082 34.8531 42.6128 34.8395 42.6143 34.8254C43.2706 28.1397 41.5145 22.3307 37.9564 17.1833C37.9477 17.1665 37.9332 17.1535 37.9157 17.1465ZM21.7764 31.3027C20.225 31.3027 18.9454 29.8997 18.9454 28.1791C18.9454 26.4571 20.2001 25.0554 21.7764 25.0554C23.3645 25.0554 24.6323 26.4689 24.6074 28.1791C24.6074 29.901 23.3526 31.3027 21.7764 31.3027ZM32.2433 31.3027C30.6906 31.3027 29.4123 29.8997 29.4123 28.1791C29.4123 26.4571 30.6657 25.0554 32.2433 25.0554C33.8313 25.0554 35.0992 26.4689 35.0742 28.1791C35.0742 29.901 33.8327 31.3027 32.2433 31.3027Z" fill="#F9F7FF"/>
<defs>
<linearGradient id="paint0_linear_27_34051" x1="11.1176" y1="-5.13596e-06" x2="43.1576" y2="1.92268" gradientUnits="userSpaceOnUse">
<stop stop-color="#5DA0EF"/>
<stop offset="0.791667" stop-color="#7A64FF"/>
</linearGradient>
</defs>
</svg>
