<svg width="1440" height="313" viewBox="0 0 1440 313" fill="none" xmlns="http://www.w3.org/2000/svg">
<g clip-path="url(#clip0_52_4019)">
<path d="M1440 147.183C1214.36 50.9797 970.056 1.88773e-05 720 0C470.129 -1.88634e-05 225.507 50.9044 0 146.969V312.641H1440V147.183Z" fill="url(#paint0_linear_52_4019)"/>
<g opacity="0.6">
<path opacity="0.5" d="M745.042 4.07087C743.914 4.10997 743.031 5.05598 743.07 6.18382C743.109 7.31167 744.055 8.19427 745.183 8.15516C746.312 8.11605 747.195 7.17005 747.156 6.0422C747.117 4.91435 746.17 4.03176 745.042 4.07087Z" fill="url(#paint1_linear_52_4019)"/>
<path opacity="0.5" d="M794.51 19.0177C794.227 19.0275 794.007 19.264 794.016 19.546C794.026 19.8279 794.263 20.0486 794.545 20.0388C794.827 20.029 795.048 19.7925 795.038 19.5106C795.028 19.2286 794.792 19.008 794.51 19.0177Z" fill="url(#paint2_linear_52_4019)"/>
<path opacity="0.5" d="M872.51 5.01775C872.227 5.02752 872.007 5.26402 872.016 5.54599C872.026 5.82795 872.263 6.0486 872.545 6.03882C872.827 6.02904 873.048 5.79254 873.038 5.51058C873.028 5.22862 872.792 5.00797 872.51 5.01775Z" fill="url(#paint3_linear_52_4019)"/>
<path opacity="0.5" d="M851.51 10.0177C851.227 10.0275 851.007 10.264 851.016 10.546C851.026 10.8279 851.263 11.0486 851.545 11.0388C851.827 11.029 852.048 10.7925 852.038 10.5106C852.028 10.2286 851.792 10.008 851.51 10.0177Z" fill="url(#paint4_linear_52_4019)"/>
<path opacity="0.5" d="M1022.63 88.4912C1022.35 88.501 1022.12 88.7375 1022.13 89.0194C1022.14 89.3014 1022.38 89.522 1022.66 89.5123C1022.95 89.5025 1023.17 89.266 1023.16 88.984C1023.15 88.7021 1022.91 88.4814 1022.63 88.4912Z" fill="url(#paint5_linear_52_4019)"/>
<path opacity="0.5" d="M918.937 62.425C918.655 62.4348 918.434 62.6713 918.444 62.9532C918.454 63.2352 918.691 63.4558 918.973 63.446C919.255 63.4363 919.475 63.1998 919.466 62.9178C919.456 62.6358 919.219 62.4152 918.937 62.425Z" fill="url(#paint6_linear_52_4019)"/>
<path opacity="0.5" d="M1017.67 33.9454C1017.39 33.9551 1017.17 34.1916 1017.18 34.4736C1017.19 34.7556 1017.42 34.9762 1017.7 34.9664C1017.99 34.9567 1018.21 34.7202 1018.2 34.4382C1018.19 34.1562 1017.95 33.9356 1017.67 33.9454Z" fill="url(#paint7_linear_52_4019)"/>
<path opacity="0.5" d="M978.504 69.5662C977.658 69.5955 976.996 70.305 977.025 71.1509C977.054 71.9968 977.764 72.6587 978.61 72.6294C979.457 72.6001 980.119 71.8906 980.089 71.0447C980.06 70.1988 979.35 69.5369 978.504 69.5662Z" fill="url(#paint8_linear_52_4019)"/>
<path opacity="0.5" d="M972.102 17.6268C971.538 17.6464 971.096 18.1194 971.116 18.6833C971.135 19.2472 971.609 19.6885 972.173 19.669C972.737 19.6494 973.178 19.1764 973.159 18.6125C973.139 18.0485 972.666 17.6072 972.102 17.6268Z" fill="url(#paint9_linear_52_4019)"/>
<path opacity="0.5" d="M972.102 17.6268C971.538 17.6464 971.096 18.1194 971.116 18.6833C971.135 19.2472 971.609 19.6885 972.173 19.669C972.737 19.6494 973.178 19.1764 973.159 18.6125C973.139 18.0485 972.666 17.6072 972.102 17.6268Z" fill="url(#paint10_linear_52_4019)"/>
<path opacity="0.5" d="M814.041 26.0709C812.913 26.11 812.03 27.056 812.069 28.1838C812.108 29.3117 813.054 30.1943 814.183 30.1552C815.311 30.1161 816.194 29.17 816.155 28.0422C816.116 26.9144 815.169 26.0318 814.041 26.0709Z" fill="url(#paint11_linear_52_4019)"/>
<path opacity="0.5" d="M793.513 43.7599C793.231 43.7697 793.011 44.0062 793.02 44.2881C793.03 44.5701 793.267 44.7907 793.549 44.7809C793.831 44.7712 794.052 44.5347 794.042 44.2527C794.032 43.9707 793.796 43.7501 793.513 43.7599Z" fill="url(#paint12_linear_52_4019)"/>
<path opacity="0.5" d="M947.115 49.1752C946.833 49.1849 946.612 49.4214 946.622 49.7034C946.632 49.9854 946.868 50.206 947.15 50.1962C947.432 50.1865 947.653 49.95 947.643 49.668C947.634 49.386 947.397 49.1654 947.115 49.1752Z" fill="url(#paint13_linear_52_4019)"/>
<path opacity="0.5" d="M843.425 23.1089C843.142 23.1187 842.922 23.3552 842.931 23.6372C842.941 23.9191 843.178 24.1398 843.46 24.13C843.742 24.1202 843.963 23.8837 843.953 23.6018C843.943 23.3198 843.707 23.0992 843.425 23.1089Z" fill="url(#paint14_linear_52_4019)"/>
<path opacity="0.5" d="M662.511 26.0177C662.229 26.0275 662.009 26.264 662.018 26.5459C662.028 26.8279 662.265 27.0485 662.547 27.0388C662.829 27.029 663.05 26.7925 663.04 26.5105C663.03 26.2286 662.794 26.0079 662.511 26.0177Z" fill="url(#paint15_linear_52_4019)"/>
<path opacity="0.5" d="M902.991 30.2501C902.145 30.2795 901.483 30.989 901.512 31.8349C901.542 32.6807 902.251 33.3427 903.098 33.3134C903.944 33.284 904.606 32.5745 904.577 31.7286C904.547 30.8828 903.838 30.2208 902.991 30.2501Z" fill="url(#paint16_linear_52_4019)"/>
<path opacity="0.5" d="M1113.04 49.0709C1111.91 49.11 1111.03 50.056 1111.07 51.1838C1111.11 52.3117 1112.06 53.1943 1113.18 53.1552C1114.31 53.1161 1115.19 52.17 1115.16 51.0422C1115.12 49.9144 1114.17 49.0318 1113.04 49.0709Z" fill="url(#paint17_linear_52_4019)"/>
<path opacity="0.5" d="M1315.04 110.071C1313.91 110.11 1313.03 111.056 1313.07 112.184C1313.11 113.312 1314.06 114.194 1315.18 114.155C1316.31 114.116 1317.2 113.17 1317.16 112.042C1317.12 110.914 1316.17 110.032 1315.04 110.071Z" fill="url(#paint18_linear_52_4019)"/>
<path opacity="0.5" d="M1246.04 91.0708C1244.91 91.1099 1244.03 92.0559 1244.07 93.1838C1244.11 94.3116 1245.06 95.1942 1246.18 95.1551C1247.31 95.116 1248.2 94.17 1248.16 93.0421C1248.12 91.9143 1247.17 91.0317 1246.04 91.0708Z" fill="url(#paint19_linear_52_4019)"/>
<path opacity="0.5" d="M1425.04 152.071C1423.91 152.11 1423.03 153.056 1423.07 154.184C1423.11 155.312 1424.06 156.194 1425.18 156.155C1426.31 156.116 1427.2 155.17 1427.16 154.042C1427.12 152.914 1426.17 152.032 1425.04 152.071Z" fill="url(#paint20_linear_52_4019)"/>
<path opacity="0.5" d="M1032.04 35.0708C1030.91 35.1099 1030.03 36.0559 1030.07 37.1838C1030.11 38.3116 1031.06 39.1942 1032.18 39.1551C1033.31 39.116 1034.2 38.17 1034.16 37.0421C1034.12 35.9143 1033.17 35.0317 1032.04 35.0708Z" fill="url(#paint21_linear_52_4019)"/>
<path opacity="0.5" d="M1211.04 58.0708C1209.91 58.1099 1209.03 59.0559 1209.07 60.1838C1209.11 61.3116 1210.06 62.1942 1211.18 62.1551C1212.31 62.116 1213.2 61.17 1213.16 60.0421C1213.12 58.9143 1212.17 58.0317 1211.04 58.0708Z" fill="url(#paint22_linear_52_4019)"/>
<path opacity="0.5" d="M900.079 93.7613C899.797 93.7711 899.576 94.0076 899.586 94.2896C899.596 94.5715 899.832 94.7922 900.114 94.7824C900.396 94.7726 900.617 94.5361 900.607 94.2542C900.598 93.9722 900.361 93.7516 900.079 93.7613Z" fill="url(#paint23_linear_52_4019)"/>
<path opacity="0.5" d="M1053.68 99.1766C1053.4 99.1864 1053.18 99.4229 1053.19 99.7049C1053.2 99.9868 1053.43 100.207 1053.72 100.198C1054 100.188 1054.22 99.9514 1054.21 99.6695C1054.2 99.3875 1053.96 99.1668 1053.68 99.1766Z" fill="url(#paint24_linear_52_4019)"/>
<path opacity="0.5" d="M949.99 73.1104C949.708 73.1202 949.487 73.3567 949.497 73.6386C949.507 73.9206 949.743 74.1412 950.025 74.1315C950.307 74.1217 950.528 73.8852 950.518 73.6032C950.509 73.3213 950.272 73.1006 949.99 73.1104Z" fill="url(#paint25_linear_52_4019)"/>
<path opacity="0.5" d="M1048.72 44.6308C1048.44 44.6406 1048.22 44.8771 1048.23 45.1591C1048.24 45.441 1048.48 45.6617 1048.76 45.6519C1049.04 45.6421 1049.26 45.4056 1049.25 45.1237C1049.24 44.8417 1049 44.6211 1048.72 44.6308Z" fill="url(#paint26_linear_52_4019)"/>
<path opacity="0.5" d="M1225.51 77.0177C1225.23 77.0275 1225.01 77.264 1225.02 77.5459C1225.03 77.8279 1225.26 78.0485 1225.55 78.0388C1225.83 78.029 1226.05 77.7925 1226.04 77.5105C1226.03 77.2286 1225.79 77.0079 1225.51 77.0177Z" fill="url(#paint27_linear_52_4019)"/>
<path opacity="0.5" d="M1173.51 60.0177C1173.23 60.0275 1173.01 60.264 1173.02 60.5459C1173.03 60.8279 1173.26 61.0485 1173.55 61.0388C1173.83 61.029 1174.05 60.7925 1174.04 60.5105C1174.03 60.2286 1173.79 60.0079 1173.51 60.0177Z" fill="url(#paint28_linear_52_4019)"/>
<path opacity="0.5" d="M1196.51 76.0177C1196.23 76.0275 1196.01 76.264 1196.02 76.5459C1196.03 76.8279 1196.26 77.0485 1196.55 77.0388C1196.83 77.029 1197.05 76.7925 1197.04 76.5105C1197.03 76.2286 1196.79 76.0079 1196.51 76.0177Z" fill="url(#paint29_linear_52_4019)"/>
<path opacity="0.5" d="M1133.51 68.0177C1133.23 68.0275 1133.01 68.264 1133.02 68.546C1133.03 68.8279 1133.26 69.0486 1133.55 69.0388C1133.83 69.029 1134.05 68.7925 1134.04 68.5106C1134.03 68.2286 1133.79 68.008 1133.51 68.0177Z" fill="url(#paint30_linear_52_4019)"/>
<path opacity="0.5" d="M1248.51 78.0177C1248.23 78.0275 1248.01 78.264 1248.02 78.5459C1248.03 78.8279 1248.26 79.0485 1248.55 79.0388C1248.83 79.029 1249.05 78.7925 1249.04 78.5105C1249.03 78.2286 1248.79 78.0079 1248.51 78.0177Z" fill="url(#paint31_linear_52_4019)"/>
<path opacity="0.5" d="M1287.51 95.0177C1287.23 95.0275 1287.01 95.264 1287.02 95.546C1287.03 95.8279 1287.26 96.0486 1287.55 96.0388C1287.83 96.029 1288.05 95.7925 1288.04 95.5106C1288.03 95.2286 1287.79 95.008 1287.51 95.0177Z" fill="url(#paint32_linear_52_4019)"/>
<path opacity="0.5" d="M1330.51 106.018C1330.23 106.027 1330.01 106.264 1330.02 106.546C1330.03 106.828 1330.26 107.049 1330.55 107.039C1330.83 107.029 1331.05 106.792 1331.04 106.511C1331.03 106.229 1330.79 106.008 1330.51 106.018Z" fill="url(#paint33_linear_52_4019)"/>
<path opacity="0.5" d="M1261.51 90.0177C1261.23 90.0275 1261.01 90.264 1261.02 90.546C1261.03 90.8279 1261.26 91.0486 1261.55 91.0388C1261.83 91.029 1262.05 90.7925 1262.04 90.5106C1262.03 90.2286 1261.79 90.008 1261.51 90.0177Z" fill="url(#paint34_linear_52_4019)"/>
<path opacity="0.5" d="M1348.51 122.018C1348.23 122.027 1348.01 122.264 1348.02 122.546C1348.03 122.828 1348.26 123.049 1348.55 123.039C1348.83 123.029 1349.05 122.792 1349.04 122.511C1349.03 122.229 1348.79 122.008 1348.51 122.018Z" fill="url(#paint35_linear_52_4019)"/>
<path opacity="0.5" d="M1348.51 122.018C1348.23 122.027 1348.01 122.264 1348.02 122.546C1348.03 122.828 1348.26 123.049 1348.55 123.039C1348.83 123.029 1349.05 122.792 1349.04 122.511C1349.03 122.229 1348.79 122.008 1348.51 122.018Z" fill="url(#paint36_linear_52_4019)"/>
<path opacity="0.5" d="M1381.51 150.018C1381.23 150.028 1381.01 150.264 1381.02 150.546C1381.03 150.828 1381.26 151.049 1381.55 151.039C1381.83 151.029 1382.05 150.793 1382.04 150.511C1382.03 150.229 1381.79 150.008 1381.51 150.018Z" fill="url(#paint37_linear_52_4019)"/>
<path opacity="0.5" d="M1380.51 131.018C1380.23 131.028 1380.01 131.264 1380.02 131.546C1380.03 131.828 1380.26 132.049 1380.55 132.039C1380.83 132.029 1381.05 131.793 1381.04 131.511C1381.03 131.229 1380.79 131.008 1380.51 131.018Z" fill="url(#paint38_linear_52_4019)"/>
<path opacity="0.5" d="M1403.51 150.018C1403.23 150.027 1403.01 150.264 1403.02 150.546C1403.03 150.828 1403.26 151.049 1403.55 151.039C1403.83 151.029 1404.05 150.792 1404.04 150.511C1404.03 150.229 1403.79 150.008 1403.51 150.018Z" fill="url(#paint39_linear_52_4019)"/>
<path opacity="0.5" d="M1208.51 86.0177C1208.23 86.0275 1208.01 86.264 1208.02 86.546C1208.03 86.8279 1208.26 87.0486 1208.55 87.0388C1208.83 87.029 1209.05 86.7925 1209.04 86.5106C1209.03 86.2286 1208.79 86.008 1208.51 86.0177Z" fill="url(#paint40_linear_52_4019)"/>
<path opacity="0.5" d="M1129.51 53.0177C1129.23 53.0275 1129.01 53.264 1129.02 53.546C1129.03 53.8279 1129.26 54.0486 1129.55 54.0388C1129.83 54.029 1130.05 53.7925 1130.04 53.5106C1130.03 53.2286 1129.79 53.008 1129.51 53.0177Z" fill="url(#paint41_linear_52_4019)"/>
<path opacity="0.5" d="M1185.53 69.0532C1184.69 69.0825 1184.02 69.792 1184.05 70.6379C1184.08 71.4838 1184.79 72.1457 1185.64 72.1164C1186.48 72.0871 1187.15 71.3776 1187.12 70.5317C1187.09 69.6858 1186.38 69.0238 1185.53 69.0532Z" fill="url(#paint42_linear_52_4019)"/>
<path opacity="0.5" d="M1003.15 28.3123C1002.59 28.3318 1002.15 28.8048 1002.17 29.3688C1002.19 29.9327 1002.66 30.374 1003.23 30.3544C1003.79 30.3349 1004.23 29.8619 1004.21 29.298C1004.19 28.734 1003.72 28.2927 1003.15 28.3123Z" fill="url(#paint43_linear_52_4019)"/>
<path opacity="0.5" d="M1093.02 63.0355C1092.46 63.055 1092.01 63.528 1092.03 64.092C1092.05 64.6559 1092.53 65.0972 1093.09 65.0776C1093.65 65.0581 1094.1 64.5851 1094.08 64.0212C1094.06 63.4572 1093.58 63.0159 1093.02 63.0355Z" fill="url(#paint44_linear_52_4019)"/>
<path opacity="0.5" d="M1082.02 42.0355C1081.46 42.055 1081.01 42.528 1081.03 43.092C1081.05 43.6559 1081.53 44.0972 1082.09 44.0776C1082.65 44.0581 1083.1 43.5851 1083.08 43.0212C1083.06 42.4572 1082.58 42.0159 1082.02 42.0355Z" fill="url(#paint45_linear_52_4019)"/>
<path opacity="0.5" d="M1145.02 60.0354C1144.46 60.055 1144.02 60.528 1144.03 61.0919C1144.05 61.6558 1144.53 62.0971 1145.09 62.0776C1145.66 62.058 1146.1 61.585 1146.08 61.0211C1146.06 60.4572 1145.59 60.0159 1145.02 60.0354Z" fill="url(#paint46_linear_52_4019)"/>
<path opacity="0.5" d="M716.022 8.03543C715.458 8.05499 715.016 8.52799 715.036 9.09191C715.055 9.65583 715.529 10.0971 716.093 10.0776C716.657 10.058 717.098 9.58502 717.079 9.0211C717.059 8.45718 716.586 8.01588 716.022 8.03543Z" fill="url(#paint47_linear_52_4019)"/>
<path opacity="0.5" d="M742.021 24.0354C741.457 24.055 741.015 24.528 741.035 25.0919C741.054 25.6558 741.528 26.0971 742.092 26.0776C742.656 26.058 743.097 25.585 743.078 25.0211C743.058 24.4572 742.585 24.0159 742.021 24.0354Z" fill="url(#paint48_linear_52_4019)"/>
<path opacity="0.5" d="M670.022 5.03543C669.458 5.05499 669.016 5.52799 669.036 6.09191C669.055 6.65583 669.529 7.09713 670.093 7.07758C670.657 7.05803 671.098 6.58502 671.079 6.0211C671.059 5.45718 670.586 5.01588 670.022 5.03543Z" fill="url(#paint49_linear_52_4019)"/>
<path opacity="0.5" d="M894.041 9.07087C892.913 9.10997 892.03 10.056 892.069 11.1838C892.108 12.3117 893.054 13.1943 894.183 13.1552C895.311 13.1161 896.194 12.17 896.155 11.0422C896.116 9.91435 895.169 9.03176 894.041 9.07087Z" fill="url(#paint50_linear_52_4019)"/>
<path opacity="0.5" d="M755.201 118.726C754.919 118.736 754.698 118.973 754.708 119.255C754.718 119.537 754.954 119.757 755.236 119.748C755.518 119.738 755.739 119.501 755.729 119.219C755.72 118.937 755.483 118.717 755.201 118.726Z" fill="url(#paint51_linear_52_4019)"/>
<path opacity="0.5" d="M908.802 124.142C908.52 124.152 908.3 124.388 908.309 124.67C908.319 124.952 908.556 125.173 908.838 125.163C909.12 125.153 909.341 124.917 909.331 124.635C909.321 124.353 909.085 124.132 908.802 124.142Z" fill="url(#paint52_linear_52_4019)"/>
<path opacity="0.5" d="M805.112 98.0755C804.83 98.0853 804.609 98.3218 804.619 98.6038C804.629 98.8857 804.865 99.1064 805.147 99.0966C805.43 99.0868 805.65 98.8503 805.641 98.5684C805.631 98.2864 805.394 98.0658 805.112 98.0755Z" fill="url(#paint53_linear_52_4019)"/>
<path opacity="0.5" d="M903.844 69.596C903.562 69.6058 903.342 69.8423 903.351 70.1242C903.361 70.4062 903.598 70.6268 903.88 70.6171C904.162 70.6073 904.383 70.3708 904.373 70.0888C904.363 69.8069 904.127 69.5862 903.844 69.596Z" fill="url(#paint54_linear_52_4019)"/>
<path opacity="0.5" d="M925.51 19.0177C925.227 19.0275 925.007 19.264 925.016 19.546C925.026 19.8279 925.263 20.0486 925.545 20.0388C925.827 20.029 926.048 19.7925 926.038 19.5106C926.028 19.2286 925.792 19.008 925.51 19.0177Z" fill="url(#paint55_linear_52_4019)"/>
<path opacity="0.5" d="M957.51 24.0177C957.227 24.0275 957.007 24.264 957.016 24.546C957.026 24.8279 957.263 25.0486 957.545 25.0388C957.827 25.029 958.048 24.7925 958.038 24.5106C958.028 24.2286 957.792 24.008 957.51 24.0177Z" fill="url(#paint56_linear_52_4019)"/>
<path opacity="0.5" d="M1043.51 31.0177C1043.23 31.0275 1043.01 31.264 1043.02 31.546C1043.03 31.8279 1043.26 32.0486 1043.54 32.0388C1043.83 32.029 1044.05 31.7925 1044.04 31.5106C1044.03 31.2286 1043.79 31.008 1043.51 31.0177Z" fill="url(#paint57_linear_52_4019)"/>
<path opacity="0.5" d="M1043.51 31.0177C1043.23 31.0275 1043.01 31.264 1043.02 31.546C1043.03 31.8279 1043.26 32.0486 1043.54 32.0388C1043.83 32.029 1044.05 31.7925 1044.04 31.5106C1044.03 31.2286 1043.79 31.008 1043.51 31.0177Z" fill="url(#paint58_linear_52_4019)"/>
<path opacity="0.5" d="M774.53 6.05318C773.684 6.08251 773.022 6.79201 773.051 7.6379C773.081 8.48378 773.79 9.14573 774.637 9.1164C775.483 9.08707 776.145 8.37757 776.116 7.53168C776.087 6.6858 775.377 6.02385 774.53 6.05318Z" fill="url(#paint59_linear_52_4019)"/>
<path opacity="0.5" d="M858.277 53.2774C857.713 53.297 857.271 53.77 857.291 54.3339C857.31 54.8978 857.783 55.3391 858.348 55.3196C858.912 55.3 859.353 54.827 859.334 54.2631C859.314 53.6992 858.841 53.2579 858.277 53.2774Z" fill="url(#paint60_linear_52_4019)"/>
<path opacity="0.5" d="M858.277 53.2774C857.713 53.297 857.271 53.77 857.291 54.3339C857.31 54.8978 857.783 55.3391 858.348 55.3196C858.912 55.3 859.353 54.827 859.334 54.2631C859.314 53.6992 858.841 53.2579 858.277 53.2774Z" fill="url(#paint61_linear_52_4019)"/>
</g>
<g opacity="0.6">
<path opacity="0.5" d="M241.856 78.7429C240.789 79.1112 240.222 80.2745 240.591 81.3413C240.959 82.4081 242.122 82.9744 243.19 82.6061C244.257 82.2378 244.824 81.0744 244.456 80.0076C244.087 78.9408 242.924 78.3746 241.856 78.7429Z" fill="url(#paint62_linear_52_4019)"/>
<path opacity="0.5" d="M293.532 78.5254C293.265 78.6175 293.124 78.9084 293.216 79.1751C293.308 79.4417 293.599 79.5833 293.866 79.4912C294.132 79.3992 294.274 79.1083 294.182 78.8416C294.09 78.5749 293.799 78.4334 293.532 78.5254Z" fill="url(#paint63_linear_52_4019)"/>
<path opacity="0.5" d="M363.997 42.2663C363.73 42.3584 363.589 42.6493 363.681 42.916C363.773 43.1827 364.064 43.3242 364.33 43.2321C364.597 43.1401 364.739 42.8492 364.647 42.5825C364.555 42.3158 364.264 42.1743 363.997 42.2663Z" fill="url(#paint64_linear_52_4019)"/>
<path opacity="0.5" d="M345.387 53.2051C345.12 53.2971 344.978 53.588 345.07 53.8547C345.162 54.1214 345.453 54.2629 345.72 54.1709C345.987 54.0788 346.129 53.7879 346.036 53.5212C345.944 53.2546 345.654 53.113 345.387 53.2051Z" fill="url(#paint65_linear_52_4019)"/>
<path opacity="0.5" d="M531.995 78.0453C531.728 78.1374 531.587 78.4282 531.679 78.6949C531.771 78.9616 532.062 79.1032 532.328 79.0111C532.595 78.9191 532.737 78.6282 532.645 78.3615C532.553 78.0948 532.262 77.9533 531.995 78.0453Z" fill="url(#paint66_linear_52_4019)"/>
<path opacity="0.5" d="M425.219 83.5339C424.952 83.626 424.81 83.9168 424.902 84.1835C424.994 84.4502 425.285 84.5918 425.552 84.4997C425.819 84.4076 425.961 84.1168 425.869 83.8501C425.776 83.5834 425.486 83.4418 425.219 83.5339Z" fill="url(#paint67_linear_52_4019)"/>
<path opacity="0.5" d="M511.258 27.352C510.991 27.4441 510.849 27.735 510.941 28.0016C511.033 28.2683 511.324 28.4099 511.591 28.3178C511.858 28.2258 512 27.9349 511.908 27.6682C511.816 27.4015 511.525 27.26 511.258 27.352Z" fill="url(#paint68_linear_52_4019)"/>
<path opacity="0.5" d="M484.262 72.8922C483.461 73.1684 483.036 74.0409 483.312 74.841C483.588 75.6411 484.461 76.0658 485.262 75.7896C486.062 75.5133 486.487 74.6408 486.211 73.8407C485.935 73.0406 485.062 72.6159 484.262 72.8922Z" fill="url(#paint69_linear_52_4019)"/>
<path opacity="0.5" d="M462.909 25.1142C462.376 25.2983 462.092 25.88 462.276 26.4134C462.46 26.9468 463.042 27.2299 463.576 27.0458C464.109 26.8616 464.393 26.2799 464.209 25.7465C464.025 25.2131 463.443 24.93 462.909 25.1142Z" fill="url(#paint70_linear_52_4019)"/>
<path opacity="0.5" d="M462.909 25.1142C462.376 25.2983 462.092 25.88 462.276 26.4134C462.46 26.9468 463.042 27.2299 463.576 27.0458C464.109 26.8616 464.393 26.2799 464.209 25.7465C464.025 25.2131 463.443 24.93 462.909 25.1142Z" fill="url(#paint71_linear_52_4019)"/>
<path opacity="0.5" d="M314.274 79.5404C313.207 79.9087 312.64 81.0721 313.009 82.1389C313.377 83.2057 314.54 83.7719 315.608 83.4036C316.675 83.0353 317.242 81.8719 316.873 80.8052C316.505 79.7384 315.342 79.1721 314.274 79.5404Z" fill="url(#paint72_linear_52_4019)"/>
<path opacity="0.5" d="M299.837 102.472C299.57 102.564 299.428 102.855 299.52 103.121C299.612 103.388 299.903 103.53 300.17 103.438C300.437 103.345 300.579 103.055 300.487 102.788C300.395 102.521 300.104 102.38 299.837 102.472Z" fill="url(#paint73_linear_52_4019)"/>
<path opacity="0.5" d="M448.272 62.6031C448.006 62.6952 447.864 62.9861 447.956 63.2527C448.048 63.5194 448.339 63.661 448.606 63.5689C448.873 63.4769 449.014 63.186 448.922 62.9193C448.83 62.6526 448.539 62.5111 448.272 62.6031Z" fill="url(#paint74_linear_52_4019)"/>
<path opacity="0.5" d="M341.497 68.0918C341.23 68.1839 341.089 68.4747 341.181 68.7414C341.273 69.0081 341.564 69.1497 341.83 69.0576C342.097 68.9655 342.239 68.6747 342.147 68.408C342.055 68.1413 341.764 67.9997 341.497 68.0918Z" fill="url(#paint75_linear_52_4019)"/>
<path opacity="0.5" d="M169.391 123.928C169.124 124.02 168.982 124.311 169.074 124.578C169.166 124.844 169.457 124.986 169.724 124.894C169.991 124.802 170.132 124.511 170.04 124.244C169.948 123.977 169.657 123.836 169.391 123.928Z" fill="url(#paint76_linear_52_4019)"/>
<path opacity="0.5" d="M427.535 11.9099C427.268 12.002 427.127 12.2928 427.219 12.5595C427.311 12.8262 427.602 12.9678 427.868 12.8757C428.135 12.7836 428.277 12.4928 428.185 12.2261C428.093 11.9594 427.802 11.8178 427.535 11.9099Z" fill="url(#paint77_linear_52_4019)"/>
<path opacity="0.5" d="M400.539 57.45C399.739 57.7262 399.314 58.5987 399.59 59.3988C399.866 60.1989 400.738 60.6236 401.539 60.3474C402.339 60.0711 402.764 59.1986 402.488 58.3985C402.212 57.5984 401.34 57.1737 400.539 57.45Z" fill="url(#paint78_linear_52_4019)"/>
<path opacity="0.5" d="M379.187 9.67197C378.653 9.85612 378.37 10.4378 378.554 10.9712C378.738 11.5046 379.319 11.7877 379.853 11.6036C380.387 11.4194 380.67 10.8377 380.486 10.3043C380.302 9.77094 379.72 9.48782 379.187 9.67197Z" fill="url(#paint79_linear_52_4019)"/>
<path opacity="0.5" d="M379.187 9.67197C378.653 9.85612 378.37 10.4378 378.554 10.9712C378.738 11.5046 379.319 11.7877 379.853 11.6036C380.387 11.4194 380.67 10.8377 380.486 10.3043C380.302 9.77094 379.72 9.48782 379.187 9.67197Z" fill="url(#paint80_linear_52_4019)"/>
<path opacity="0.5" d="M606.873 13.843C605.806 14.2113 605.239 15.3747 605.607 16.4415C605.975 17.5083 607.139 18.0745 608.206 17.7062C609.273 17.3379 609.84 16.1746 609.472 15.1078C609.104 14.041 607.94 13.4747 606.873 13.843Z" fill="url(#paint81_linear_52_4019)"/>
<path opacity="0.5" d="M416.381 119.023C416.114 119.115 415.972 119.406 416.064 119.672C416.156 119.939 416.447 120.081 416.714 119.989C416.981 119.896 417.123 119.606 417.031 119.339C416.939 119.072 416.648 118.931 416.381 119.023Z" fill="url(#paint82_linear_52_4019)"/>
<path opacity="0.5" d="M564.816 79.1542C564.55 79.2462 564.408 79.5371 564.5 79.8038C564.592 80.0705 564.883 80.212 565.15 80.12C565.417 80.0279 565.558 79.737 565.466 79.4703C565.374 79.2036 565.083 79.0621 564.816 79.1542Z" fill="url(#paint83_linear_52_4019)"/>
<path opacity="0.5" d="M458.041 84.6428C457.774 84.7349 457.633 85.0257 457.725 85.2924C457.817 85.5591 458.107 85.7007 458.374 85.6086C458.641 85.5165 458.783 85.2257 458.691 84.959C458.599 84.6923 458.308 84.5507 458.041 84.6428Z" fill="url(#paint84_linear_52_4019)"/>
<path opacity="0.5" d="M544.079 28.4609C543.812 28.553 543.671 28.8438 543.763 29.1105C543.855 29.3772 544.146 29.5188 544.412 29.4267C544.679 29.3346 544.821 29.0438 544.729 28.7771C544.637 28.5104 544.346 28.3688 544.079 28.4609Z" fill="url(#paint85_linear_52_4019)"/>
<path opacity="0.5" d="M682.035 11.6884C681.235 11.9646 680.81 12.8371 681.086 13.6372C681.362 14.4373 682.235 14.862 683.035 14.5858C683.835 14.3096 684.261 13.437 683.984 12.6369C683.708 11.8368 682.836 11.4122 682.035 11.6884Z" fill="url(#paint86_linear_52_4019)"/>
<path opacity="0.5" d="M495.73 26.2231C495.197 26.4072 494.913 26.9889 495.098 27.5223C495.282 28.0557 495.863 28.3388 496.397 28.1547C496.931 27.9705 497.214 27.3888 497.03 26.8554C496.846 26.322 496.264 26.0389 495.73 26.2231Z" fill="url(#paint87_linear_52_4019)"/>
<path opacity="0.5" d="M591.827 33.0654C591.294 33.2495 591.01 33.8312 591.194 34.3646C591.378 34.898 591.96 35.1811 592.494 34.997C593.027 34.8129 593.311 34.2312 593.127 33.6978C592.943 33.1644 592.361 32.8813 591.827 33.0654Z" fill="url(#paint88_linear_52_4019)"/>
<path opacity="0.5" d="M575.152 16.2146C574.619 16.3988 574.335 16.9805 574.519 17.5139C574.703 18.0473 575.285 18.3304 575.819 18.1462C576.353 17.9621 576.636 17.3804 576.452 16.847C576.268 16.3136 575.686 16.0305 575.152 16.2146Z" fill="url(#paint89_linear_52_4019)"/>
<path opacity="0.5" d="M640.662 14.9471C640.128 15.1313 639.845 15.7129 640.029 16.2463C640.213 16.7797 640.795 17.0629 641.329 16.8787C641.862 16.6946 642.146 16.1129 641.962 15.5795C641.778 15.0461 641.196 14.763 640.662 14.9471Z" fill="url(#paint90_linear_52_4019)"/>
<path opacity="0.5" d="M215.274 91.0437C214.741 91.2278 214.457 91.8095 214.641 92.3429C214.826 92.8763 215.407 93.1594 215.941 92.9753C216.475 92.7911 216.758 92.2094 216.574 91.676C216.39 91.1426 215.808 90.8595 215.274 91.0437Z" fill="url(#paint91_linear_52_4019)"/>
<path opacity="0.5" d="M128.966 116.333C128.432 116.518 128.149 117.099 128.333 117.633C128.517 118.166 129.099 118.449 129.632 118.265C130.166 118.081 130.449 117.499 130.265 116.966C130.081 116.432 129.499 116.149 128.966 116.333Z" fill="url(#paint92_linear_52_4019)"/>
<path opacity="0.5" d="M74.9658 142.333C74.4322 142.518 74.1488 143.099 74.3329 143.633C74.5169 144.166 75.0988 144.449 75.6324 144.265C76.166 144.081 76.4494 143.499 76.2654 142.966C76.0813 142.432 75.4995 142.149 74.9658 142.333Z" fill="url(#paint93_linear_52_4019)"/>
<path opacity="0.5" d="M148.966 102.333C148.432 102.518 148.149 103.099 148.333 103.633C148.517 104.166 149.099 104.449 149.632 104.265C150.166 104.081 150.449 103.499 150.265 102.966C150.081 102.432 149.499 102.149 148.966 102.333Z" fill="url(#paint94_linear_52_4019)"/>
<path opacity="0.5" d="M44.9658 146.333C44.4322 146.518 44.1488 147.099 44.3329 147.633C44.5169 148.166 45.0988 148.449 45.6324 148.265C46.166 148.081 46.4494 147.499 46.2654 146.966C46.0813 146.432 45.4995 146.149 44.9658 146.333Z" fill="url(#paint95_linear_52_4019)"/>
<path opacity="0.5" d="M211.966 113.333C211.432 113.518 211.149 114.099 211.333 114.633C211.517 115.166 212.099 115.449 212.632 115.265C213.166 115.081 213.449 114.499 213.265 113.966C213.081 113.432 212.499 113.149 211.966 113.333Z" fill="url(#paint96_linear_52_4019)"/>
<path opacity="0.5" d="M14.9658 164.333C14.4322 164.518 14.1488 165.099 14.3329 165.633C14.5169 166.166 15.0988 166.449 15.6324 166.265C16.166 166.081 16.4494 165.499 16.2654 164.966C16.0813 164.432 15.4995 164.149 14.9658 164.333Z" fill="url(#paint97_linear_52_4019)"/>
<path opacity="0.5" d="M53.9658 167.333C53.4322 167.518 53.1488 168.099 53.3329 168.633C53.5169 169.166 54.0988 169.449 54.6324 169.265C55.166 169.081 55.4494 168.499 55.2654 167.966C55.0813 167.432 54.4995 167.149 53.9658 167.333Z" fill="url(#paint98_linear_52_4019)"/>
<path opacity="0.5" d="M244.824 98.7153C244.291 98.8995 244.007 99.4811 244.191 100.015C244.375 100.548 244.957 100.831 245.491 100.647C246.024 100.463 246.308 99.8811 246.124 99.3477C245.94 98.8143 245.358 98.5312 244.824 98.7153Z" fill="url(#paint99_linear_52_4019)"/>
<path opacity="0.5" d="M170.418 101.666C169.884 101.85 169.601 102.432 169.785 102.965C169.969 103.498 170.551 103.781 171.085 103.597C171.618 103.413 171.902 102.831 171.718 102.298C171.533 101.765 170.952 101.482 170.418 101.666Z" fill="url(#paint100_linear_52_4019)"/>
<path opacity="0.5" d="M385.772 39.8267C384.704 40.195 384.137 41.3584 384.506 42.4252C384.874 43.492 386.037 44.0582 387.105 43.6899C388.172 43.3216 388.739 42.1583 388.371 41.0915C388.002 40.0247 386.839 39.4584 385.772 39.8267Z" fill="url(#paint101_linear_52_4019)"/>
<path opacity="0.5" d="M285.193 185.378C284.927 185.47 284.785 185.761 284.877 186.027C284.969 186.294 285.26 186.436 285.527 186.344C285.793 186.251 285.935 185.961 285.843 185.694C285.751 185.427 285.46 185.286 285.193 185.378Z" fill="url(#paint102_linear_52_4019)"/>
<path opacity="0.5" d="M433.63 145.509C433.363 145.601 433.221 145.892 433.313 146.159C433.405 146.425 433.696 146.567 433.963 146.475C434.23 146.383 434.372 146.092 434.28 145.825C434.188 145.559 433.897 145.417 433.63 145.509Z" fill="url(#paint103_linear_52_4019)"/>
<path opacity="0.5" d="M326.855 150.998C326.588 151.09 326.446 151.381 326.538 151.647C326.63 151.914 326.921 152.056 327.188 151.964C327.455 151.872 327.596 151.581 327.504 151.314C327.412 151.047 327.121 150.906 326.855 150.998Z" fill="url(#paint104_linear_52_4019)"/>
<path opacity="0.5" d="M412.893 94.8158C412.626 94.9079 412.484 95.1988 412.576 95.4655C412.668 95.7322 412.959 95.8737 413.226 95.7816C413.493 95.6896 413.634 95.3987 413.542 95.132C413.45 94.8653 413.159 94.7238 412.893 94.8158Z" fill="url(#paint105_linear_52_4019)"/>
<path opacity="0.5" d="M418.772 40.1078C418.506 40.1999 418.364 40.4907 418.456 40.7574C418.548 41.0241 418.839 41.1657 419.106 41.0736C419.373 40.9816 419.514 40.6907 419.422 40.424C419.33 40.1573 419.039 40.0158 418.772 40.1078Z" fill="url(#paint106_linear_52_4019)"/>
<path opacity="0.5" d="M450.832 35.5036C450.565 35.5957 450.424 35.8865 450.516 36.1532C450.608 36.4199 450.899 36.5615 451.165 36.4694C451.432 36.3773 451.574 36.0865 451.482 35.8198C451.39 35.5531 451.099 35.4115 450.832 35.5036Z" fill="url(#paint107_linear_52_4019)"/>
<path opacity="0.5" d="M535.104 16.9751C534.837 17.0672 534.695 17.358 534.787 17.6247C534.879 17.8914 535.17 18.033 535.437 17.9409C535.704 17.8488 535.845 17.558 535.753 17.2913C535.661 17.0246 535.37 16.883 535.104 16.9751Z" fill="url(#paint108_linear_52_4019)"/>
<path opacity="0.5" d="M535.104 16.9751C534.837 17.0672 534.695 17.358 534.787 17.6247C534.879 17.8914 535.17 18.033 535.437 17.9409C535.704 17.8488 535.845 17.558 535.753 17.2913C535.661 17.0246 535.37 16.883 535.104 16.9751Z" fill="url(#paint109_linear_52_4019)"/>
<path opacity="0.5" d="M270.631 71.9898C269.83 72.266 269.405 73.1386 269.681 73.9387C269.958 74.7388 270.83 75.1634 271.631 74.8872C272.431 74.611 272.856 73.7385 272.58 72.9384C272.304 72.1383 271.431 71.7136 270.631 71.9898Z" fill="url(#paint110_linear_52_4019)"/>
<path opacity="0.5" d="M364.544 92.578C364.01 92.7621 363.727 93.3438 363.911 93.8772C364.095 94.4106 364.677 94.6937 365.211 94.5096C365.744 94.3254 366.028 93.7437 365.843 93.2103C365.659 92.6769 365.078 92.3938 364.544 92.578Z" fill="url(#paint111_linear_52_4019)"/>
<path opacity="0.5" d="M364.544 92.578C364.01 92.7621 363.727 93.3438 363.911 93.8772C364.095 94.4106 364.677 94.6937 365.211 94.5096C365.744 94.3254 366.028 93.7437 365.843 93.2103C365.659 92.6769 365.078 92.3938 364.544 92.578Z" fill="url(#paint112_linear_52_4019)"/>
</g>
</g>
<defs>
<linearGradient id="paint0_linear_52_4019" x1="741" y1="-2.52205e-06" x2="742.5" y2="178.5" gradientUnits="userSpaceOnUse">
<stop stop-color="#9327FF" stop-opacity="0.05"/>
<stop offset="1" stop-color="white" stop-opacity="0"/>
</linearGradient>
<linearGradient id="paint1_linear_52_4019" x1="747.142" y1="8.06296" x2="745.262" y2="3.23403" gradientUnits="userSpaceOnUse">
<stop offset="0.182292" stop-color="#30F3D0"/>
<stop offset="0.671875" stop-color="#446ACB"/>
</linearGradient>
<linearGradient id="paint2_linear_52_4019" x1="795.034" y1="20.0158" x2="794.565" y2="18.8085" gradientUnits="userSpaceOnUse">
<stop offset="0.182292" stop-color="#30F3D0"/>
<stop offset="0.671875" stop-color="#446ACB"/>
</linearGradient>
<linearGradient id="paint3_linear_52_4019" x1="873.034" y1="6.01577" x2="872.565" y2="4.80854" gradientUnits="userSpaceOnUse">
<stop offset="0.182292" stop-color="#30F3D0"/>
<stop offset="0.671875" stop-color="#446ACB"/>
</linearGradient>
<linearGradient id="paint4_linear_52_4019" x1="852.034" y1="11.0158" x2="851.565" y2="9.80854" gradientUnits="userSpaceOnUse">
<stop offset="0.182292" stop-color="#30F3D0"/>
<stop offset="0.671875" stop-color="#446ACB"/>
</linearGradient>
<linearGradient id="paint5_linear_52_4019" x1="1023.15" y1="89.4892" x2="1022.68" y2="88.282" gradientUnits="userSpaceOnUse">
<stop offset="0.182292" stop-color="#30F3D0"/>
<stop offset="0.671875" stop-color="#446ACB"/>
</linearGradient>
<linearGradient id="paint6_linear_52_4019" x1="919.462" y1="63.423" x2="918.992" y2="62.2158" gradientUnits="userSpaceOnUse">
<stop offset="0.182292" stop-color="#30F3D0"/>
<stop offset="0.671875" stop-color="#446ACB"/>
</linearGradient>
<linearGradient id="paint7_linear_52_4019" x1="1018.19" y1="34.9434" x2="1017.72" y2="33.7362" gradientUnits="userSpaceOnUse">
<stop offset="0.182292" stop-color="#30F3D0"/>
<stop offset="0.671875" stop-color="#446ACB"/>
</linearGradient>
<linearGradient id="paint8_linear_52_4019" x1="980.079" y1="72.5602" x2="978.669" y2="68.9386" gradientUnits="userSpaceOnUse">
<stop offset="0.182292" stop-color="#30F3D0"/>
<stop offset="0.671875" stop-color="#446ACB"/>
</linearGradient>
<linearGradient id="paint9_linear_52_4019" x1="973.152" y1="19.6228" x2="972.212" y2="17.2084" gradientUnits="userSpaceOnUse">
<stop offset="0.182292" stop-color="#30F3D0"/>
<stop offset="0.671875" stop-color="#446ACB"/>
</linearGradient>
<linearGradient id="paint10_linear_52_4019" x1="973.152" y1="19.6228" x2="972.212" y2="17.2084" gradientUnits="userSpaceOnUse">
<stop offset="0.182292" stop-color="#30F3D0"/>
<stop offset="0.671875" stop-color="#446ACB"/>
</linearGradient>
<linearGradient id="paint11_linear_52_4019" x1="816.141" y1="30.063" x2="814.261" y2="25.234" gradientUnits="userSpaceOnUse">
<stop offset="0.182292" stop-color="#30F3D0"/>
<stop offset="0.671875" stop-color="#446ACB"/>
</linearGradient>
<linearGradient id="paint12_linear_52_4019" x1="794.038" y1="44.7579" x2="793.569" y2="43.5507" gradientUnits="userSpaceOnUse">
<stop offset="0.182292" stop-color="#30F3D0"/>
<stop offset="0.671875" stop-color="#446ACB"/>
</linearGradient>
<linearGradient id="paint13_linear_52_4019" x1="947.64" y1="50.1732" x2="947.17" y2="48.9659" gradientUnits="userSpaceOnUse">
<stop offset="0.182292" stop-color="#30F3D0"/>
<stop offset="0.671875" stop-color="#446ACB"/>
</linearGradient>
<linearGradient id="paint14_linear_52_4019" x1="843.949" y1="24.107" x2="843.48" y2="22.8997" gradientUnits="userSpaceOnUse">
<stop offset="0.182292" stop-color="#30F3D0"/>
<stop offset="0.671875" stop-color="#446ACB"/>
</linearGradient>
<linearGradient id="paint15_linear_52_4019" x1="663.036" y1="27.0157" x2="662.567" y2="25.8085" gradientUnits="userSpaceOnUse">
<stop offset="0.182292" stop-color="#30F3D0"/>
<stop offset="0.671875" stop-color="#446ACB"/>
</linearGradient>
<linearGradient id="paint16_linear_52_4019" x1="904.566" y1="33.2442" x2="903.157" y2="29.6225" gradientUnits="userSpaceOnUse">
<stop offset="0.182292" stop-color="#30F3D0"/>
<stop offset="0.671875" stop-color="#446ACB"/>
</linearGradient>
<linearGradient id="paint17_linear_52_4019" x1="1115.14" y1="53.063" x2="1113.26" y2="48.234" gradientUnits="userSpaceOnUse">
<stop offset="0.182292" stop-color="#30F3D0"/>
<stop offset="0.671875" stop-color="#446ACB"/>
</linearGradient>
<linearGradient id="paint18_linear_52_4019" x1="1317.14" y1="114.063" x2="1315.26" y2="109.234" gradientUnits="userSpaceOnUse">
<stop offset="0.182292" stop-color="#30F3D0"/>
<stop offset="0.671875" stop-color="#446ACB"/>
</linearGradient>
<linearGradient id="paint19_linear_52_4019" x1="1248.14" y1="95.0629" x2="1246.26" y2="90.234" gradientUnits="userSpaceOnUse">
<stop offset="0.182292" stop-color="#30F3D0"/>
<stop offset="0.671875" stop-color="#446ACB"/>
</linearGradient>
<linearGradient id="paint20_linear_52_4019" x1="1427.14" y1="156.063" x2="1425.26" y2="151.234" gradientUnits="userSpaceOnUse">
<stop offset="0.182292" stop-color="#30F3D0"/>
<stop offset="0.671875" stop-color="#446ACB"/>
</linearGradient>
<linearGradient id="paint21_linear_52_4019" x1="1034.14" y1="39.0629" x2="1032.26" y2="34.234" gradientUnits="userSpaceOnUse">
<stop offset="0.182292" stop-color="#30F3D0"/>
<stop offset="0.671875" stop-color="#446ACB"/>
</linearGradient>
<linearGradient id="paint22_linear_52_4019" x1="1213.14" y1="62.0629" x2="1211.26" y2="57.234" gradientUnits="userSpaceOnUse">
<stop offset="0.182292" stop-color="#30F3D0"/>
<stop offset="0.671875" stop-color="#446ACB"/>
</linearGradient>
<linearGradient id="paint23_linear_52_4019" x1="900.604" y1="94.7594" x2="900.134" y2="93.5521" gradientUnits="userSpaceOnUse">
<stop offset="0.182292" stop-color="#30F3D0"/>
<stop offset="0.671875" stop-color="#446ACB"/>
</linearGradient>
<linearGradient id="paint24_linear_52_4019" x1="1054.21" y1="100.175" x2="1053.74" y2="98.9674" gradientUnits="userSpaceOnUse">
<stop offset="0.182292" stop-color="#30F3D0"/>
<stop offset="0.671875" stop-color="#446ACB"/>
</linearGradient>
<linearGradient id="paint25_linear_52_4019" x1="950.515" y1="74.1084" x2="950.045" y2="72.9012" gradientUnits="userSpaceOnUse">
<stop offset="0.182292" stop-color="#30F3D0"/>
<stop offset="0.671875" stop-color="#446ACB"/>
</linearGradient>
<linearGradient id="paint26_linear_52_4019" x1="1049.25" y1="45.6289" x2="1048.78" y2="44.4216" gradientUnits="userSpaceOnUse">
<stop offset="0.182292" stop-color="#30F3D0"/>
<stop offset="0.671875" stop-color="#446ACB"/>
</linearGradient>
<linearGradient id="paint27_linear_52_4019" x1="1226.04" y1="78.0157" x2="1225.57" y2="76.8085" gradientUnits="userSpaceOnUse">
<stop offset="0.182292" stop-color="#30F3D0"/>
<stop offset="0.671875" stop-color="#446ACB"/>
</linearGradient>
<linearGradient id="paint28_linear_52_4019" x1="1174.04" y1="61.0157" x2="1173.57" y2="59.8085" gradientUnits="userSpaceOnUse">
<stop offset="0.182292" stop-color="#30F3D0"/>
<stop offset="0.671875" stop-color="#446ACB"/>
</linearGradient>
<linearGradient id="paint29_linear_52_4019" x1="1197.04" y1="77.0157" x2="1196.57" y2="75.8085" gradientUnits="userSpaceOnUse">
<stop offset="0.182292" stop-color="#30F3D0"/>
<stop offset="0.671875" stop-color="#446ACB"/>
</linearGradient>
<linearGradient id="paint30_linear_52_4019" x1="1134.04" y1="69.0158" x2="1133.57" y2="67.8085" gradientUnits="userSpaceOnUse">
<stop offset="0.182292" stop-color="#30F3D0"/>
<stop offset="0.671875" stop-color="#446ACB"/>
</linearGradient>
<linearGradient id="paint31_linear_52_4019" x1="1249.04" y1="79.0157" x2="1248.57" y2="77.8085" gradientUnits="userSpaceOnUse">
<stop offset="0.182292" stop-color="#30F3D0"/>
<stop offset="0.671875" stop-color="#446ACB"/>
</linearGradient>
<linearGradient id="paint32_linear_52_4019" x1="1288.04" y1="96.0158" x2="1287.57" y2="94.8085" gradientUnits="userSpaceOnUse">
<stop offset="0.182292" stop-color="#30F3D0"/>
<stop offset="0.671875" stop-color="#446ACB"/>
</linearGradient>
<linearGradient id="paint33_linear_52_4019" x1="1331.04" y1="107.016" x2="1330.57" y2="105.808" gradientUnits="userSpaceOnUse">
<stop offset="0.182292" stop-color="#30F3D0"/>
<stop offset="0.671875" stop-color="#446ACB"/>
</linearGradient>
<linearGradient id="paint34_linear_52_4019" x1="1262.04" y1="91.0158" x2="1261.57" y2="89.8085" gradientUnits="userSpaceOnUse">
<stop offset="0.182292" stop-color="#30F3D0"/>
<stop offset="0.671875" stop-color="#446ACB"/>
</linearGradient>
<linearGradient id="paint35_linear_52_4019" x1="1349.04" y1="123.016" x2="1348.57" y2="121.808" gradientUnits="userSpaceOnUse">
<stop offset="0.182292" stop-color="#30F3D0"/>
<stop offset="0.671875" stop-color="#446ACB"/>
</linearGradient>
<linearGradient id="paint36_linear_52_4019" x1="1349.04" y1="123.016" x2="1348.57" y2="121.808" gradientUnits="userSpaceOnUse">
<stop offset="0.182292" stop-color="#30F3D0"/>
<stop offset="0.671875" stop-color="#446ACB"/>
</linearGradient>
<linearGradient id="paint37_linear_52_4019" x1="1382.04" y1="151.016" x2="1381.57" y2="149.809" gradientUnits="userSpaceOnUse">
<stop offset="0.182292" stop-color="#30F3D0"/>
<stop offset="0.671875" stop-color="#446ACB"/>
</linearGradient>
<linearGradient id="paint38_linear_52_4019" x1="1381.04" y1="132.016" x2="1380.57" y2="130.809" gradientUnits="userSpaceOnUse">
<stop offset="0.182292" stop-color="#30F3D0"/>
<stop offset="0.671875" stop-color="#446ACB"/>
</linearGradient>
<linearGradient id="paint39_linear_52_4019" x1="1404.04" y1="151.016" x2="1403.57" y2="149.808" gradientUnits="userSpaceOnUse">
<stop offset="0.182292" stop-color="#30F3D0"/>
<stop offset="0.671875" stop-color="#446ACB"/>
</linearGradient>
<linearGradient id="paint40_linear_52_4019" x1="1209.04" y1="87.0158" x2="1208.57" y2="85.8085" gradientUnits="userSpaceOnUse">
<stop offset="0.182292" stop-color="#30F3D0"/>
<stop offset="0.671875" stop-color="#446ACB"/>
</linearGradient>
<linearGradient id="paint41_linear_52_4019" x1="1130.04" y1="54.0158" x2="1129.57" y2="52.8085" gradientUnits="userSpaceOnUse">
<stop offset="0.182292" stop-color="#30F3D0"/>
<stop offset="0.671875" stop-color="#446ACB"/>
</linearGradient>
<linearGradient id="paint42_linear_52_4019" x1="1187.11" y1="72.0472" x2="1185.7" y2="68.4256" gradientUnits="userSpaceOnUse">
<stop offset="0.182292" stop-color="#30F3D0"/>
<stop offset="0.671875" stop-color="#446ACB"/>
</linearGradient>
<linearGradient id="paint43_linear_52_4019" x1="1004.2" y1="30.3083" x2="1003.26" y2="27.8939" gradientUnits="userSpaceOnUse">
<stop offset="0.182292" stop-color="#30F3D0"/>
<stop offset="0.671875" stop-color="#446ACB"/>
</linearGradient>
<linearGradient id="paint44_linear_52_4019" x1="1094.07" y1="65.0315" x2="1093.13" y2="62.6171" gradientUnits="userSpaceOnUse">
<stop offset="0.182292" stop-color="#30F3D0"/>
<stop offset="0.671875" stop-color="#446ACB"/>
</linearGradient>
<linearGradient id="paint45_linear_52_4019" x1="1083.07" y1="44.0315" x2="1082.13" y2="41.6171" gradientUnits="userSpaceOnUse">
<stop offset="0.182292" stop-color="#30F3D0"/>
<stop offset="0.671875" stop-color="#446ACB"/>
</linearGradient>
<linearGradient id="paint46_linear_52_4019" x1="1146.07" y1="62.0315" x2="1145.13" y2="59.617" gradientUnits="userSpaceOnUse">
<stop offset="0.182292" stop-color="#30F3D0"/>
<stop offset="0.671875" stop-color="#446ACB"/>
</linearGradient>
<linearGradient id="paint47_linear_52_4019" x1="717.072" y1="10.0315" x2="716.132" y2="7.61702" gradientUnits="userSpaceOnUse">
<stop offset="0.182292" stop-color="#30F3D0"/>
<stop offset="0.671875" stop-color="#446ACB"/>
</linearGradient>
<linearGradient id="paint48_linear_52_4019" x1="743.071" y1="26.0315" x2="742.131" y2="23.617" gradientUnits="userSpaceOnUse">
<stop offset="0.182292" stop-color="#30F3D0"/>
<stop offset="0.671875" stop-color="#446ACB"/>
</linearGradient>
<linearGradient id="paint49_linear_52_4019" x1="671.072" y1="7.03148" x2="670.132" y2="4.61702" gradientUnits="userSpaceOnUse">
<stop offset="0.182292" stop-color="#30F3D0"/>
<stop offset="0.671875" stop-color="#446ACB"/>
</linearGradient>
<linearGradient id="paint50_linear_52_4019" x1="896.141" y1="13.063" x2="894.261" y2="8.23403" gradientUnits="userSpaceOnUse">
<stop offset="0.182292" stop-color="#30F3D0"/>
<stop offset="0.671875" stop-color="#446ACB"/>
</linearGradient>
<linearGradient id="paint51_linear_52_4019" x1="755.726" y1="119.725" x2="755.256" y2="118.517" gradientUnits="userSpaceOnUse">
<stop offset="0.182292" stop-color="#30F3D0"/>
<stop offset="0.671875" stop-color="#446ACB"/>
</linearGradient>
<linearGradient id="paint52_linear_52_4019" x1="909.327" y1="125.14" x2="908.858" y2="123.933" gradientUnits="userSpaceOnUse">
<stop offset="0.182292" stop-color="#30F3D0"/>
<stop offset="0.671875" stop-color="#446ACB"/>
</linearGradient>
<linearGradient id="paint53_linear_52_4019" x1="805.637" y1="99.0736" x2="805.167" y2="97.8663" gradientUnits="userSpaceOnUse">
<stop offset="0.182292" stop-color="#30F3D0"/>
<stop offset="0.671875" stop-color="#446ACB"/>
</linearGradient>
<linearGradient id="paint54_linear_52_4019" x1="904.369" y1="70.594" x2="903.9" y2="69.3868" gradientUnits="userSpaceOnUse">
<stop offset="0.182292" stop-color="#30F3D0"/>
<stop offset="0.671875" stop-color="#446ACB"/>
</linearGradient>
<linearGradient id="paint55_linear_52_4019" x1="926.034" y1="20.0158" x2="925.565" y2="18.8085" gradientUnits="userSpaceOnUse">
<stop offset="0.182292" stop-color="#30F3D0"/>
<stop offset="0.671875" stop-color="#446ACB"/>
</linearGradient>
<linearGradient id="paint56_linear_52_4019" x1="958.034" y1="25.0158" x2="957.565" y2="23.8085" gradientUnits="userSpaceOnUse">
<stop offset="0.182292" stop-color="#30F3D0"/>
<stop offset="0.671875" stop-color="#446ACB"/>
</linearGradient>
<linearGradient id="paint57_linear_52_4019" x1="1044.03" y1="32.0158" x2="1043.56" y2="30.8085" gradientUnits="userSpaceOnUse">
<stop offset="0.182292" stop-color="#30F3D0"/>
<stop offset="0.671875" stop-color="#446ACB"/>
</linearGradient>
<linearGradient id="paint58_linear_52_4019" x1="1044.03" y1="32.0158" x2="1043.56" y2="30.8085" gradientUnits="userSpaceOnUse">
<stop offset="0.182292" stop-color="#30F3D0"/>
<stop offset="0.671875" stop-color="#446ACB"/>
</linearGradient>
<linearGradient id="paint59_linear_52_4019" x1="776.105" y1="9.04725" x2="774.696" y2="5.42555" gradientUnits="userSpaceOnUse">
<stop offset="0.182292" stop-color="#30F3D0"/>
<stop offset="0.671875" stop-color="#446ACB"/>
</linearGradient>
<linearGradient id="paint60_linear_52_4019" x1="859.327" y1="55.2735" x2="858.387" y2="52.859" gradientUnits="userSpaceOnUse">
<stop offset="0.182292" stop-color="#30F3D0"/>
<stop offset="0.671875" stop-color="#446ACB"/>
</linearGradient>
<linearGradient id="paint61_linear_52_4019" x1="859.327" y1="55.2735" x2="858.387" y2="52.859" gradientUnits="userSpaceOnUse">
<stop offset="0.182292" stop-color="#30F3D0"/>
<stop offset="0.671875" stop-color="#446ACB"/>
</linearGradient>
<linearGradient id="paint62_linear_52_4019" x1="245.035" y1="81.9436" x2="241.822" y2="77.8782" gradientUnits="userSpaceOnUse">
<stop offset="0.182292" stop-color="#30F3D0"/>
<stop offset="0.671875" stop-color="#446ACB"/>
</linearGradient>
<linearGradient id="paint63_linear_52_4019" x1="294.327" y1="79.3256" x2="293.524" y2="78.3093" gradientUnits="userSpaceOnUse">
<stop offset="0.182292" stop-color="#30F3D0"/>
<stop offset="0.671875" stop-color="#446ACB"/>
</linearGradient>
<linearGradient id="paint64_linear_52_4019" x1="364.792" y1="43.0665" x2="363.988" y2="42.0502" gradientUnits="userSpaceOnUse">
<stop offset="0.182292" stop-color="#30F3D0"/>
<stop offset="0.671875" stop-color="#446ACB"/>
</linearGradient>
<linearGradient id="paint65_linear_52_4019" x1="346.181" y1="54.0053" x2="345.378" y2="52.9889" gradientUnits="userSpaceOnUse">
<stop offset="0.182292" stop-color="#30F3D0"/>
<stop offset="0.671875" stop-color="#446ACB"/>
</linearGradient>
<linearGradient id="paint66_linear_52_4019" x1="532.79" y1="78.8455" x2="531.986" y2="77.8292" gradientUnits="userSpaceOnUse">
<stop offset="0.182292" stop-color="#30F3D0"/>
<stop offset="0.671875" stop-color="#446ACB"/>
</linearGradient>
<linearGradient id="paint67_linear_52_4019" x1="426.013" y1="84.3341" x2="425.21" y2="83.3178" gradientUnits="userSpaceOnUse">
<stop offset="0.182292" stop-color="#30F3D0"/>
<stop offset="0.671875" stop-color="#446ACB"/>
</linearGradient>
<linearGradient id="paint68_linear_52_4019" x1="512.052" y1="28.1522" x2="511.249" y2="27.1359" gradientUnits="userSpaceOnUse">
<stop offset="0.182292" stop-color="#30F3D0"/>
<stop offset="0.671875" stop-color="#446ACB"/>
</linearGradient>
<linearGradient id="paint69_linear_52_4019" x1="486.645" y1="75.2928" x2="484.236" y2="72.2437" gradientUnits="userSpaceOnUse">
<stop offset="0.182292" stop-color="#30F3D0"/>
<stop offset="0.671875" stop-color="#446ACB"/>
</linearGradient>
<linearGradient id="paint70_linear_52_4019" x1="464.498" y1="26.7146" x2="462.892" y2="24.6818" gradientUnits="userSpaceOnUse">
<stop offset="0.182292" stop-color="#30F3D0"/>
<stop offset="0.671875" stop-color="#446ACB"/>
</linearGradient>
<linearGradient id="paint71_linear_52_4019" x1="464.498" y1="26.7146" x2="462.892" y2="24.6818" gradientUnits="userSpaceOnUse">
<stop offset="0.182292" stop-color="#30F3D0"/>
<stop offset="0.671875" stop-color="#446ACB"/>
</linearGradient>
<linearGradient id="paint72_linear_52_4019" x1="317.453" y1="82.7412" x2="314.24" y2="78.6757" gradientUnits="userSpaceOnUse">
<stop offset="0.182292" stop-color="#30F3D0"/>
<stop offset="0.671875" stop-color="#446ACB"/>
</linearGradient>
<linearGradient id="paint73_linear_52_4019" x1="300.631" y1="103.272" x2="299.828" y2="102.256" gradientUnits="userSpaceOnUse">
<stop offset="0.182292" stop-color="#30F3D0"/>
<stop offset="0.671875" stop-color="#446ACB"/>
</linearGradient>
<linearGradient id="paint74_linear_52_4019" x1="449.067" y1="63.4033" x2="448.264" y2="62.387" gradientUnits="userSpaceOnUse">
<stop offset="0.182292" stop-color="#30F3D0"/>
<stop offset="0.671875" stop-color="#446ACB"/>
</linearGradient>
<linearGradient id="paint75_linear_52_4019" x1="342.292" y1="68.892" x2="341.488" y2="67.8756" gradientUnits="userSpaceOnUse">
<stop offset="0.182292" stop-color="#30F3D0"/>
<stop offset="0.671875" stop-color="#446ACB"/>
</linearGradient>
<linearGradient id="paint76_linear_52_4019" x1="170.185" y1="124.728" x2="169.382" y2="123.712" gradientUnits="userSpaceOnUse">
<stop offset="0.182292" stop-color="#30F3D0"/>
<stop offset="0.671875" stop-color="#446ACB"/>
</linearGradient>
<linearGradient id="paint77_linear_52_4019" x1="428.33" y1="12.7101" x2="427.526" y2="11.6937" gradientUnits="userSpaceOnUse">
<stop offset="0.182292" stop-color="#30F3D0"/>
<stop offset="0.671875" stop-color="#446ACB"/>
</linearGradient>
<linearGradient id="paint78_linear_52_4019" x1="402.923" y1="59.8506" x2="400.513" y2="56.8015" gradientUnits="userSpaceOnUse">
<stop offset="0.182292" stop-color="#30F3D0"/>
<stop offset="0.671875" stop-color="#446ACB"/>
</linearGradient>
<linearGradient id="paint79_linear_52_4019" x1="380.776" y1="11.2724" x2="379.169" y2="9.23963" gradientUnits="userSpaceOnUse">
<stop offset="0.182292" stop-color="#30F3D0"/>
<stop offset="0.671875" stop-color="#446ACB"/>
</linearGradient>
<linearGradient id="paint80_linear_52_4019" x1="380.776" y1="11.2724" x2="379.169" y2="9.23963" gradientUnits="userSpaceOnUse">
<stop offset="0.182292" stop-color="#30F3D0"/>
<stop offset="0.671875" stop-color="#446ACB"/>
</linearGradient>
<linearGradient id="paint81_linear_52_4019" x1="610.051" y1="17.0438" x2="606.838" y2="12.9783" gradientUnits="userSpaceOnUse">
<stop offset="0.182292" stop-color="#30F3D0"/>
<stop offset="0.671875" stop-color="#446ACB"/>
</linearGradient>
<linearGradient id="paint82_linear_52_4019" x1="417.175" y1="119.823" x2="416.372" y2="118.807" gradientUnits="userSpaceOnUse">
<stop offset="0.182292" stop-color="#30F3D0"/>
<stop offset="0.671875" stop-color="#446ACB"/>
</linearGradient>
<linearGradient id="paint83_linear_52_4019" x1="565.611" y1="79.9544" x2="564.808" y2="78.938" gradientUnits="userSpaceOnUse">
<stop offset="0.182292" stop-color="#30F3D0"/>
<stop offset="0.671875" stop-color="#446ACB"/>
</linearGradient>
<linearGradient id="paint84_linear_52_4019" x1="458.836" y1="85.443" x2="458.032" y2="84.4266" gradientUnits="userSpaceOnUse">
<stop offset="0.182292" stop-color="#30F3D0"/>
<stop offset="0.671875" stop-color="#446ACB"/>
</linearGradient>
<linearGradient id="paint85_linear_52_4019" x1="544.874" y1="29.2611" x2="544.07" y2="28.2448" gradientUnits="userSpaceOnUse">
<stop offset="0.182292" stop-color="#30F3D0"/>
<stop offset="0.671875" stop-color="#446ACB"/>
</linearGradient>
<linearGradient id="paint86_linear_52_4019" x1="684.419" y1="14.089" x2="682.009" y2="11.0399" gradientUnits="userSpaceOnUse">
<stop offset="0.182292" stop-color="#30F3D0"/>
<stop offset="0.671875" stop-color="#446ACB"/>
</linearGradient>
<linearGradient id="paint87_linear_52_4019" x1="497.32" y1="27.8234" x2="495.713" y2="25.7907" gradientUnits="userSpaceOnUse">
<stop offset="0.182292" stop-color="#30F3D0"/>
<stop offset="0.671875" stop-color="#446ACB"/>
</linearGradient>
<linearGradient id="paint88_linear_52_4019" x1="593.416" y1="34.6658" x2="591.81" y2="32.6331" gradientUnits="userSpaceOnUse">
<stop offset="0.182292" stop-color="#30F3D0"/>
<stop offset="0.671875" stop-color="#446ACB"/>
</linearGradient>
<linearGradient id="paint89_linear_52_4019" x1="576.741" y1="17.815" x2="575.135" y2="15.7823" gradientUnits="userSpaceOnUse">
<stop offset="0.182292" stop-color="#30F3D0"/>
<stop offset="0.671875" stop-color="#446ACB"/>
</linearGradient>
<linearGradient id="paint90_linear_52_4019" x1="642.251" y1="16.5475" x2="640.645" y2="14.5148" gradientUnits="userSpaceOnUse">
<stop offset="0.182292" stop-color="#30F3D0"/>
<stop offset="0.671875" stop-color="#446ACB"/>
</linearGradient>
<linearGradient id="paint91_linear_52_4019" x1="216.864" y1="92.6441" x2="215.257" y2="90.6113" gradientUnits="userSpaceOnUse">
<stop offset="0.182292" stop-color="#30F3D0"/>
<stop offset="0.671875" stop-color="#446ACB"/>
</linearGradient>
<linearGradient id="paint92_linear_52_4019" x1="130.555" y1="117.934" x2="128.949" y2="115.901" gradientUnits="userSpaceOnUse">
<stop offset="0.182292" stop-color="#30F3D0"/>
<stop offset="0.671875" stop-color="#446ACB"/>
</linearGradient>
<linearGradient id="paint93_linear_52_4019" x1="76.5549" y1="143.934" x2="74.9485" y2="141.901" gradientUnits="userSpaceOnUse">
<stop offset="0.182292" stop-color="#30F3D0"/>
<stop offset="0.671875" stop-color="#446ACB"/>
</linearGradient>
<linearGradient id="paint94_linear_52_4019" x1="150.555" y1="103.934" x2="148.949" y2="101.901" gradientUnits="userSpaceOnUse">
<stop offset="0.182292" stop-color="#30F3D0"/>
<stop offset="0.671875" stop-color="#446ACB"/>
</linearGradient>
<linearGradient id="paint95_linear_52_4019" x1="46.5549" y1="147.934" x2="44.9485" y2="145.901" gradientUnits="userSpaceOnUse">
<stop offset="0.182292" stop-color="#30F3D0"/>
<stop offset="0.671875" stop-color="#446ACB"/>
</linearGradient>
<linearGradient id="paint96_linear_52_4019" x1="213.555" y1="114.934" x2="211.949" y2="112.901" gradientUnits="userSpaceOnUse">
<stop offset="0.182292" stop-color="#30F3D0"/>
<stop offset="0.671875" stop-color="#446ACB"/>
</linearGradient>
<linearGradient id="paint97_linear_52_4019" x1="16.5549" y1="165.934" x2="14.9485" y2="163.901" gradientUnits="userSpaceOnUse">
<stop offset="0.182292" stop-color="#30F3D0"/>
<stop offset="0.671875" stop-color="#446ACB"/>
</linearGradient>
<linearGradient id="paint98_linear_52_4019" x1="55.5549" y1="168.934" x2="53.9485" y2="166.901" gradientUnits="userSpaceOnUse">
<stop offset="0.182292" stop-color="#30F3D0"/>
<stop offset="0.671875" stop-color="#446ACB"/>
</linearGradient>
<linearGradient id="paint99_linear_52_4019" x1="246.413" y1="100.316" x2="244.807" y2="98.283" gradientUnits="userSpaceOnUse">
<stop offset="0.182292" stop-color="#30F3D0"/>
<stop offset="0.671875" stop-color="#446ACB"/>
</linearGradient>
<linearGradient id="paint100_linear_52_4019" x1="172.007" y1="103.266" x2="170.401" y2="101.233" gradientUnits="userSpaceOnUse">
<stop offset="0.182292" stop-color="#30F3D0"/>
<stop offset="0.671875" stop-color="#446ACB"/>
</linearGradient>
<linearGradient id="paint101_linear_52_4019" x1="388.95" y1="43.0275" x2="385.737" y2="38.962" gradientUnits="userSpaceOnUse">
<stop offset="0.182292" stop-color="#30F3D0"/>
<stop offset="0.671875" stop-color="#446ACB"/>
</linearGradient>
<linearGradient id="paint102_linear_52_4019" x1="285.988" y1="186.178" x2="285.185" y2="185.162" gradientUnits="userSpaceOnUse">
<stop offset="0.182292" stop-color="#30F3D0"/>
<stop offset="0.671875" stop-color="#446ACB"/>
</linearGradient>
<linearGradient id="paint103_linear_52_4019" x1="434.424" y1="146.309" x2="433.621" y2="145.293" gradientUnits="userSpaceOnUse">
<stop offset="0.182292" stop-color="#30F3D0"/>
<stop offset="0.671875" stop-color="#446ACB"/>
</linearGradient>
<linearGradient id="paint104_linear_52_4019" x1="327.649" y1="151.798" x2="326.846" y2="150.782" gradientUnits="userSpaceOnUse">
<stop offset="0.182292" stop-color="#30F3D0"/>
<stop offset="0.671875" stop-color="#446ACB"/>
</linearGradient>
<linearGradient id="paint105_linear_52_4019" x1="413.687" y1="95.616" x2="412.884" y2="94.5997" gradientUnits="userSpaceOnUse">
<stop offset="0.182292" stop-color="#30F3D0"/>
<stop offset="0.671875" stop-color="#446ACB"/>
</linearGradient>
<linearGradient id="paint106_linear_52_4019" x1="419.567" y1="40.908" x2="418.764" y2="39.8917" gradientUnits="userSpaceOnUse">
<stop offset="0.182292" stop-color="#30F3D0"/>
<stop offset="0.671875" stop-color="#446ACB"/>
</linearGradient>
<linearGradient id="paint107_linear_52_4019" x1="451.627" y1="36.3038" x2="450.823" y2="35.2874" gradientUnits="userSpaceOnUse">
<stop offset="0.182292" stop-color="#30F3D0"/>
<stop offset="0.671875" stop-color="#446ACB"/>
</linearGradient>
<linearGradient id="paint108_linear_52_4019" x1="535.898" y1="17.7753" x2="535.095" y2="16.7589" gradientUnits="userSpaceOnUse">
<stop offset="0.182292" stop-color="#30F3D0"/>
<stop offset="0.671875" stop-color="#446ACB"/>
</linearGradient>
<linearGradient id="paint109_linear_52_4019" x1="535.898" y1="17.7753" x2="535.095" y2="16.7589" gradientUnits="userSpaceOnUse">
<stop offset="0.182292" stop-color="#30F3D0"/>
<stop offset="0.671875" stop-color="#446ACB"/>
</linearGradient>
<linearGradient id="paint110_linear_52_4019" x1="273.015" y1="74.3904" x2="270.605" y2="71.3413" gradientUnits="userSpaceOnUse">
<stop offset="0.182292" stop-color="#30F3D0"/>
<stop offset="0.671875" stop-color="#446ACB"/>
</linearGradient>
<linearGradient id="paint111_linear_52_4019" x1="366.133" y1="94.1784" x2="364.527" y2="92.1456" gradientUnits="userSpaceOnUse">
<stop offset="0.182292" stop-color="#30F3D0"/>
<stop offset="0.671875" stop-color="#446ACB"/>
</linearGradient>
<linearGradient id="paint112_linear_52_4019" x1="366.133" y1="94.1784" x2="364.527" y2="92.1456" gradientUnits="userSpaceOnUse">
<stop offset="0.182292" stop-color="#30F3D0"/>
<stop offset="0.671875" stop-color="#446ACB"/>
</linearGradient>
<clipPath id="clip0_52_4019">
<rect width="1440" height="312.641" fill="white"/>
</clipPath>
</defs>
</svg>
