<svg width="30" height="30" viewBox="0 0 30 30" fill="none" xmlns="http://www.w3.org/2000/svg">
<path d="M0 8C0 3.58172 3.58172 0 8 0H22C26.4183 0 30 3.58172 30 8V22C30 26.4183 26.4183 30 22 30H8C3.58172 30 0 26.4183 0 22V8Z" fill="white" fill-opacity="0.06"/>
<path d="M14.9997 23.9583C13.508 23.9583 12.2913 22.7417 12.2913 21.25V20.625H8.74967C8.13301 20.625 7.55801 20.3833 7.12467 19.9417C6.69967 19.525 6.45801 18.95 6.45801 18.3333C6.45801 17.1667 7.36634 16.1667 8.53301 16.05C8.57467 16.0417 8.65801 16.0417 8.74967 16.0417H21.2497C21.3413 16.0417 21.4247 16.0417 21.508 16.0583C21.9997 16.1 22.4913 16.3333 22.8747 16.725C23.3497 17.1833 23.5913 17.85 23.533 18.5333C23.433 19.7083 22.3913 20.625 21.158 20.625H17.708V21.25C17.708 22.7417 16.4913 23.9583 14.9997 23.9583ZM8.74967 17.2917C8.73301 17.2917 8.66634 17.2917 8.64967 17.3C8.12467 17.35 7.70801 17.8083 7.70801 18.3333C7.70801 18.6083 7.81634 18.8667 8.00801 19.0583C8.20801 19.2667 8.46634 19.375 8.74967 19.375H12.9163C13.258 19.375 13.5413 19.6583 13.5413 20V21.25C13.5413 22.05 14.1997 22.7083 14.9997 22.7083C15.7997 22.7083 16.458 22.05 16.458 21.25V20C16.458 19.6583 16.7413 19.375 17.083 19.375H21.158C21.733 19.375 22.2413 18.95 22.2913 18.425C22.3163 18.1083 22.208 17.8167 21.9913 17.6C21.808 17.4167 21.5913 17.3083 21.358 17.2917L21.2497 17.2833H8.74967V17.2917Z" fill="url(#paint0_linear_52_4221)"/>
<path d="M21.4087 17.3C21.3754 17.3 21.342 17.3 21.3087 17.2917H8.75036C8.57536 17.325 8.36703 17.275 8.23369 17.1583C8.09203 17.05 7.98369 16.8833 7.97536 16.7083L7.56703 9.45001C7.48369 8.60001 7.76703 7.72501 8.35869 7.06667C8.95036 6.41667 9.79203 6.04167 10.6754 6.04167H19.3254C20.2087 6.04167 21.0504 6.41667 21.642 7.07501C22.2254 7.72501 22.517 8.60001 22.4337 9.46667L22.0337 16.7083C22.0254 16.8833 21.942 17.05 21.8004 17.1583C21.692 17.25 21.5504 17.3 21.4087 17.3ZM9.18369 16.0417H20.817L21.1837 9.38334C21.1837 9.37501 21.1837 9.36667 21.1837 9.35C21.2337 8.81667 21.067 8.30001 20.7087 7.90834C20.3504 7.51667 19.8504 7.29167 19.317 7.29167H10.6754C10.1504 7.29167 9.64203 7.51667 9.28369 7.90834C8.92536 8.30834 8.75869 8.81667 8.81703 9.35L9.18369 16.0417Z" fill="url(#paint1_linear_52_4221)"/>
<path d="M11.6582 11.4583C11.3165 11.4583 11.0332 11.175 11.0332 10.8333V6.66667C11.0332 6.32501 11.3165 6.04167 11.6582 6.04167C11.9999 6.04167 12.2832 6.32501 12.2832 6.66667V10.8333C12.2832 11.175 11.9999 11.4583 11.6582 11.4583Z" fill="url(#paint2_linear_52_4221)"/>
<path d="M15 8.95834C14.6583 8.95834 14.375 8.67501 14.375 8.33334V6.66667C14.375 6.32501 14.6583 6.04167 15 6.04167C15.3417 6.04167 15.625 6.32501 15.625 6.66667V8.33334C15.625 8.67501 15.3417 8.95834 15 8.95834Z" fill="url(#paint3_linear_52_4221)"/>
<defs>
<linearGradient id="paint0_linear_52_4221" x1="9.97521" y1="16.0417" x2="19.9802" y2="17.3373" gradientUnits="userSpaceOnUse">
<stop stop-color="#5DA0EF"/>
<stop offset="0.791667" stop-color="#7A64FF"/>
</linearGradient>
<linearGradient id="paint1_linear_52_4221" x1="10.6193" y1="6.04167" x2="19.4333" y2="6.74132" gradientUnits="userSpaceOnUse">
<stop stop-color="#5DA0EF"/>
<stop offset="0.791667" stop-color="#7A64FF"/>
</linearGradient>
<linearGradient id="paint2_linear_52_4221" x1="11.2906" y1="6.04167" x2="12.0347" y2="6.05198" gradientUnits="userSpaceOnUse">
<stop stop-color="#5DA0EF"/>
<stop offset="0.791667" stop-color="#7A64FF"/>
</linearGradient>
<linearGradient id="paint3_linear_52_4221" x1="14.6324" y1="6.04167" x2="15.3762" y2="6.0608" gradientUnits="userSpaceOnUse">
<stop stop-color="#5DA0EF"/>
<stop offset="0.791667" stop-color="#7A64FF"/>
</linearGradient>
</defs>
</svg>
