<svg width="30" height="30" viewBox="0 0 30 30" fill="none" xmlns="http://www.w3.org/2000/svg">
<path d="M0 8C0 3.58172 3.58172 0 8 0H22C26.4183 0 30 3.58172 30 8V22C30 26.4183 26.4183 30 22 30H8C3.58172 30 0 26.4183 0 22V8Z" fill="white" fill-opacity="0.06"/>
<path d="M8.77778 15.7778H14.2222V21.2222C14.2222 21.4285 14.3042 21.6263 14.45 21.7722C14.5959 21.9181 14.7937 22 15 22C15.2063 22 15.4041 21.9181 15.55 21.7722C15.6958 21.6263 15.7778 21.4285 15.7778 21.2222V15.7778H21.2222C21.4285 15.7778 21.6263 15.6958 21.7722 15.55C21.9181 15.4041 22 15.2063 22 15C22 14.7937 21.9181 14.5959 21.7722 14.45C21.6263 14.3042 21.4285 14.2222 21.2222 14.2222H15.7778V8.77778C15.7778 8.5715 15.6958 8.37367 15.55 8.22781C15.4041 8.08194 15.2063 8 15 8C14.7937 8 14.5959 8.08194 14.45 8.22781C14.3042 8.37367 14.2222 8.5715 14.2222 8.77778V14.2222H8.77778C8.5715 14.2222 8.37367 14.3042 8.22781 14.45C8.08194 14.5959 8 14.7937 8 15C8 15.2063 8.08194 15.4041 8.22781 15.55C8.37367 15.6958 8.5715 15.7778 8.77778 15.7778V15.7778Z" fill="url(#paint0_linear_52_4260)"/>
<defs>
<linearGradient id="paint0_linear_52_4260" x1="10.8824" y1="8" x2="19.189" y2="8.49847" gradientUnits="userSpaceOnUse">
<stop stop-color="#5DA0EF"/>
<stop offset="0.791667" stop-color="#5B44E7"/>
</linearGradient>
</defs>
</svg>
