<svg width="24" height="24" viewBox="0 0 24 24" fill="none" xmlns="http://www.w3.org/2000/svg">
<rect width="24" height="24" rx="12" fill="#A49CFF"/>
<path d="M16.8515 7.62062C15.959 7.21813 15.0024 6.92064 14.002 6.75148C13.9931 6.74977 13.9839 6.75087 13.9756 6.75463C13.9674 6.75839 13.9605 6.76463 13.9559 6.77248C13.8334 6.98772 13.6969 7.2683 13.6013 7.48996C12.5403 7.33143 11.4616 7.33143 10.4006 7.48996C10.2941 7.2443 10.1739 7.00477 10.0407 6.77248C10.0362 6.76453 10.0294 6.75816 10.0211 6.7542C10.0129 6.75023 10.0037 6.74888 9.99464 6.75031C8.99483 6.91947 8.03819 7.21696 7.14513 7.62003C7.13745 7.62326 7.13094 7.62875 7.12647 7.63578C5.31119 10.3045 4.81362 12.9072 5.05803 15.4773C5.05871 15.4836 5.06066 15.4897 5.06377 15.4952C5.06688 15.5007 5.07108 15.5055 5.07611 15.5094C6.13564 16.2808 7.31741 16.8684 8.57193 17.2477C8.58067 17.2504 8.59003 17.2504 8.59877 17.2477C8.60751 17.2449 8.61523 17.2397 8.62093 17.2325C8.89088 16.8715 9.1301 16.4885 9.33607 16.0875C9.33893 16.082 9.34058 16.0759 9.3409 16.0698C9.34123 16.0636 9.34022 16.0574 9.33795 16.0517C9.33569 16.0459 9.33221 16.0407 9.32776 16.0364C9.32331 16.0321 9.31799 16.0288 9.31216 16.0268C8.93534 15.8849 8.57023 15.7136 8.22019 15.5146C8.2139 15.511 8.2086 15.506 8.20476 15.4998C8.20093 15.4937 8.19868 15.4867 8.19822 15.4794C8.19775 15.4722 8.19909 15.465 8.20211 15.4584C8.20513 15.4518 8.20974 15.4461 8.21552 15.4417C8.28902 15.3875 8.36252 15.3309 8.43251 15.2743C8.43882 15.2692 8.4464 15.266 8.45444 15.265C8.46247 15.2639 8.47063 15.2651 8.47801 15.2685C10.7687 16.2975 13.2495 16.2975 15.5134 15.2685C15.5208 15.2649 15.529 15.2636 15.5372 15.2645C15.5453 15.2654 15.5531 15.2686 15.5595 15.2737C15.6295 15.3309 15.7024 15.3875 15.7765 15.4417C15.7823 15.446 15.787 15.4516 15.7901 15.4582C15.7932 15.4647 15.7947 15.4719 15.7943 15.4791C15.794 15.4863 15.7918 15.4934 15.7881 15.4996C15.7844 15.5058 15.7792 15.5109 15.773 15.5146C15.4241 15.7153 15.0613 15.885 14.6804 16.0262C14.6746 16.0283 14.6692 16.0317 14.6648 16.036C14.6603 16.0404 14.6569 16.0456 14.6546 16.0514C14.6523 16.0572 14.6513 16.0634 14.6517 16.0696C14.652 16.0759 14.6536 16.0819 14.6565 16.0875C14.8665 16.4882 15.1068 16.8697 15.3711 17.2319C15.3766 17.2394 15.3842 17.2449 15.393 17.2478C15.4017 17.2508 15.4112 17.2509 15.4201 17.2483C16.6767 16.8701 17.8604 16.2822 18.9211 15.5094C18.9263 15.5058 18.9306 15.5011 18.9339 15.4957C18.9371 15.4902 18.9391 15.4842 18.9398 15.4779C19.2315 12.5065 18.451 9.92472 16.8696 7.63695C16.8657 7.62952 16.8593 7.62372 16.8515 7.62062ZM9.67848 13.9123C8.989 13.9123 8.42026 13.2887 8.42026 12.524C8.42026 11.7587 8.97792 11.1357 9.67848 11.1357C10.3843 11.1357 10.9478 11.7639 10.9367 12.524C10.9367 13.2893 10.379 13.9123 9.67848 13.9123ZM14.3304 13.9123C13.6404 13.9123 13.0722 13.2887 13.0722 12.524C13.0722 11.7587 13.6293 11.1357 14.3304 11.1357C15.0362 11.1357 15.5997 11.7639 15.5886 12.524C15.5886 13.2893 15.0368 13.9123 14.3304 13.9123Z" fill="#0F0C17"/>
</svg>
