<svg width="32" height="32" viewBox="0 0 32 32" fill="none" xmlns="http://www.w3.org/2000/svg">
<path d="M0 8C0 3.58172 3.58172 0 8 0H24C28.4183 0 32 3.58172 32 8V24C32 28.4183 28.4183 32 24 32H8C3.58172 32 0 28.4183 0 24V8Z" fill="white" fill-opacity="0.06"/>
<path d="M12.4961 22.1211H12.8574C13.2936 22.1211 13.6126 22.0755 13.8145 21.9844C14.0163 21.8867 14.166 21.7174 14.2637 21.4766C14.3288 21.2943 14.3743 20.8516 14.4004 20.1484C14.4264 19.4453 14.4395 18.1432 14.4395 16.2422V10.6562H12.7598C11.7376 10.6562 11.0378 10.7995 10.6602 11.0859C10.2826 11.3724 10.0221 11.9225 9.87891 12.7363L8.96094 12.541C9.11068 11.8965 9.22461 11.2812 9.30273 10.6953C9.38737 10.1029 9.43945 9.52018 9.45898 8.94727C9.70638 9.0319 10.0547 9.09375 10.5039 9.13281C10.9531 9.16536 11.7116 9.18164 12.7793 9.18164H14.9375H16.1582H18.6387C19.8366 9.18164 20.6699 9.16536 21.1387 9.13281C21.6139 9.09375 21.9622 9.02865 22.1836 8.9375V9.24023C22.1836 9.74805 22.2031 10.2754 22.2422 10.8223C22.2878 11.3626 22.3529 11.9355 22.4375 12.541L21.5586 12.6777C21.4479 11.8835 21.2233 11.3496 20.8848 11.0762C20.5462 10.7962 19.8789 10.6562 18.8828 10.6562H18.6387H17.1641C17.1445 11.6979 17.1315 12.7233 17.125 13.7324C17.1185 14.7415 17.1152 15.9167 17.1152 17.2578V19.084C17.1152 19.9434 17.1348 20.5456 17.1738 20.8906C17.2129 21.2357 17.2747 21.4928 17.3594 21.6621C17.457 21.8249 17.61 21.9421 17.8184 22.0137C18.0267 22.0853 18.3197 22.1211 18.6973 22.1211H19.0391V23C18.8763 22.9935 18.6354 22.9837 18.3164 22.9707C17.0404 22.9121 16.168 22.8828 15.6992 22.8828C15.3607 22.8828 14.9245 22.8926 14.3906 22.9121C13.8633 22.9316 13.2318 22.9609 12.4961 23V22.1211Z" fill="url(#paint0_linear_52_4253)"/>
<defs>
<linearGradient id="paint0_linear_52_4253" x1="11.8824" y1="6" x2="16.9834" y2="4.34776" gradientUnits="userSpaceOnUse">
<stop stop-color="#5DA0EF"/>
<stop offset="0.791667" stop-color="#5B44E7"/>
</linearGradient>
</defs>
</svg>
