<svg width="24" height="25" viewBox="0 0 24 25" fill="none" xmlns="http://www.w3.org/2000/svg">
<path d="M23.643 5.43702C22.808 5.80702 21.911 6.05702 20.968 6.17002C21.941 5.58781 22.669 4.67148 23.016 3.59202C22.1019 4.13501 21.1014 4.51721 20.058 4.72202C19.3564 3.97288 18.4271 3.47634 17.4143 3.30949C16.4016 3.14264 15.3621 3.31481 14.4572 3.79927C13.5524 4.28373 12.8328 5.05338 12.4102 5.98872C11.9875 6.92406 11.8855 7.97277 12.12 8.97202C10.2677 8.87901 8.45564 8.39757 6.80144 7.55892C5.14723 6.72028 3.68785 5.54318 2.51801 4.10402C2.11801 4.79402 1.88801 5.59402 1.88801 6.44602C1.88757 7.21301 2.07644 7.96826 2.43789 8.64475C2.79934 9.32124 3.32217 9.89805 3.96001 10.324C3.22029 10.3005 2.49688 10.1006 1.85001 9.74102V9.80102C1.84994 10.8768 2.22204 11.9194 2.90319 12.752C3.58434 13.5846 4.53258 14.1559 5.58701 14.369C4.9008 14.5547 4.18135 14.5821 3.48301 14.449C3.78051 15.3746 4.36001 16.184 5.14038 16.7639C5.92075 17.3438 6.86293 17.6652 7.83501 17.683C6.18484 18.9784 4.1469 19.6811 2.04901 19.678C1.67739 19.6781 1.30609 19.6564 0.937012 19.613C3.06649 20.9822 5.54535 21.7088 8.07701 21.706C16.647 21.706 21.332 14.608 21.332 8.45202C21.332 8.25202 21.327 8.05002 21.318 7.85002C22.2293 7.19099 23.0159 6.37491 23.641 5.44002L23.643 5.43702Z" fill="white"/>
</svg>
