<svg width="256" height="265" viewBox="0 0 256 265" fill="none" xmlns="http://www.w3.org/2000/svg">
<g filter="url(#filter0_dd_1943_29480)">
<g clip-path="url(#clip0_1943_29480)">
<rect x="12" y="51" width="232" height="190" rx="4" fill="white"/>
<path d="M35.2514 73.2727C35.2514 74.2822 35.0668 75.1501 34.6974 75.8764C34.3281 76.5997 33.8219 77.1567 33.1786 77.5476C32.5385 77.9354 31.8106 78.1293 30.995 78.1293C30.1764 78.1293 29.4454 77.9354 28.8022 77.5476C28.1621 77.1567 27.6573 76.5981 27.288 75.8718C26.9187 75.1455 26.734 74.2791 26.734 73.2727C26.734 72.2633 26.9187 71.3969 27.288 70.6737C27.6573 69.9473 28.1621 69.3903 28.8022 69.0025C29.4454 68.6116 30.1764 68.4162 30.995 68.4162C31.8106 68.4162 32.5385 68.6116 33.1786 69.0025C33.8219 69.3903 34.3281 69.9473 34.6974 70.6737C35.0668 71.3969 35.2514 72.2633 35.2514 73.2727ZM33.8388 73.2727C33.8388 72.5033 33.7141 71.8555 33.4648 71.3292C33.2186 70.7998 32.8801 70.3997 32.4492 70.1289C32.0214 69.855 31.5367 69.718 30.995 69.718C30.4503 69.718 29.964 69.855 29.5362 70.1289C29.1084 70.3997 28.7699 70.7998 28.5206 71.3292C28.2744 71.8555 28.1513 72.5033 28.1513 73.2727C28.1513 74.0421 28.2744 74.6915 28.5206 75.2209C28.7699 75.7472 29.1084 76.1473 29.5362 76.4212C29.964 76.692 30.4503 76.8274 30.995 76.8274C31.5367 76.8274 32.0214 76.692 32.4492 76.4212C32.8801 76.1473 33.2186 75.7472 33.4648 75.2209C33.7141 74.6915 33.8388 74.0421 33.8388 73.2727ZM36.9191 80.6591V70.9091H38.2671V72.0586H38.3825C38.4626 71.9109 38.578 71.7401 38.7288 71.5462C38.8796 71.3523 39.0889 71.183 39.3566 71.0384C39.6244 70.8906 39.9783 70.8168 40.4184 70.8168C40.9909 70.8168 41.5017 70.9614 41.9511 71.2507C42.4004 71.54 42.7528 71.957 43.0083 72.5018C43.2668 73.0465 43.396 73.7021 43.396 74.4684C43.396 75.2347 43.2683 75.8918 43.0129 76.4396C42.7574 76.9844 42.4066 77.4045 41.9603 77.6999C41.5141 77.9923 41.0047 78.1385 40.4323 78.1385C40.0014 78.1385 39.649 78.0662 39.3751 77.9215C39.1043 77.7769 38.8919 77.6076 38.738 77.4137C38.5841 77.2198 38.4656 77.0475 38.3825 76.8967H38.2994V80.6591H36.9191ZM38.2718 74.4545C38.2718 74.9531 38.3441 75.3902 38.4887 75.7656C38.6334 76.1411 38.8427 76.435 39.1166 76.6474C39.3905 76.8567 39.7259 76.9613 40.123 76.9613C40.5354 76.9613 40.8801 76.852 41.157 76.6335C41.434 76.4119 41.6433 76.1119 41.7849 75.7333C41.9295 75.3548 42.0019 74.9285 42.0019 74.4545C42.0019 73.9867 41.9311 73.5666 41.7895 73.1942C41.651 72.8219 41.4417 72.5279 41.1617 72.3125C40.8847 72.0971 40.5384 71.9893 40.123 71.9893C39.7229 71.9893 39.3843 72.0924 39.1073 72.2987C38.8334 72.5049 38.6257 72.7926 38.4841 73.1619C38.3425 73.5312 38.2718 73.9621 38.2718 74.4545ZM48.2526 70.9091V72.017H44.3794V70.9091H48.2526ZM45.4181 69.2102H46.7984V75.918C46.7984 76.1857 46.8384 76.3873 46.9184 76.5227C46.9984 76.6551 47.1015 76.7459 47.2277 76.7951C47.357 76.8413 47.497 76.8643 47.6478 76.8643C47.7586 76.8643 47.8556 76.8567 47.9387 76.8413C48.0218 76.8259 48.0864 76.8136 48.1325 76.8043L48.3818 77.9446C48.3018 77.9754 48.1879 78.0062 48.0402 78.0369C47.8925 78.0708 47.7078 78.0893 47.4862 78.0923C47.1231 78.0985 46.7845 78.0339 46.4706 77.8984C46.1567 77.763 45.9028 77.5537 45.7089 77.2706C45.515 76.9875 45.4181 76.632 45.4181 76.2042V69.2102ZM49.7795 78V70.9091H51.1598V78H49.7795ZM50.4766 69.815C50.2365 69.815 50.0303 69.735 49.858 69.5749C49.6887 69.4118 49.604 69.2179 49.604 68.9933C49.604 68.7655 49.6887 68.5716 49.858 68.4116C50.0303 68.2485 50.2365 68.1669 50.4766 68.1669C50.7166 68.1669 50.9213 68.2485 51.0906 68.4116C51.2629 68.5716 51.3491 68.7655 51.3491 68.9933C51.3491 69.2179 51.2629 69.4118 51.0906 69.5749C50.9213 69.735 50.7166 69.815 50.4766 69.815ZM56.0036 78.1431C55.3389 78.1431 54.7587 77.9908 54.2632 77.6861C53.7677 77.3814 53.383 76.9551 53.1091 76.4073C52.8352 75.8595 52.6982 75.2193 52.6982 74.4869C52.6982 73.7513 52.8352 73.1081 53.1091 72.5572C53.383 72.0063 53.7677 71.5785 54.2632 71.2738C54.7587 70.9691 55.3389 70.8168 56.0036 70.8168C56.6684 70.8168 57.2485 70.9691 57.7441 71.2738C58.2396 71.5785 58.6243 72.0063 58.8982 72.5572C59.1721 73.1081 59.309 73.7513 59.309 74.4869C59.309 75.2193 59.1721 75.8595 58.8982 76.4073C58.6243 76.9551 58.2396 77.3814 57.7441 77.6861C57.2485 77.9908 56.6684 78.1431 56.0036 78.1431ZM56.0083 76.9844C56.4391 76.9844 56.7961 76.8705 57.0793 76.6428C57.3624 76.415 57.5717 76.1119 57.7071 75.7333C57.8456 75.3548 57.9149 74.9377 57.9149 74.4822C57.9149 74.0298 57.8456 73.6143 57.7071 73.2358C57.5717 72.8542 57.3624 72.5479 57.0793 72.3171C56.7961 72.0863 56.4391 71.9709 56.0083 71.9709C55.5743 71.9709 55.2142 72.0863 54.928 72.3171C54.6449 72.5479 54.434 72.8542 54.2955 73.2358C54.1601 73.6143 54.0924 74.0298 54.0924 74.4822C54.0924 74.9377 54.1601 75.3548 54.2955 75.7333C54.434 76.1119 54.6449 76.415 54.928 76.6428C55.2142 76.8705 55.5743 76.9844 56.0083 76.9844ZM62.2301 73.7898V78H60.8498V70.9091H62.1747V72.0632H62.2624C62.4255 71.6877 62.681 71.3861 63.0288 71.1584C63.3796 70.9306 63.8213 70.8168 64.3537 70.8168C64.8369 70.8168 65.2601 70.9183 65.6232 71.1214C65.9864 71.3215 66.268 71.62 66.468 72.017C66.6681 72.4141 66.7681 72.9049 66.7681 73.4897V78H65.3878V73.6559C65.3878 73.1419 65.2539 72.7403 64.9862 72.451C64.7184 72.1586 64.3506 72.0124 63.8828 72.0124C63.5627 72.0124 63.2781 72.0817 63.0288 72.2202C62.7826 72.3587 62.5871 72.5618 62.4425 72.8295C62.3009 73.0942 62.2301 73.4143 62.2301 73.7898ZM75.6283 68.5455V78H74.1972V69.9766H74.1418L71.8797 71.4538V70.0874L74.2387 68.5455H75.6283Z" fill="#101828"/>
<rect width="232" height="36" transform="translate(12 91)" fill="#F9FAFB"/>
<path d="M35.2514 109.273C35.2514 110.282 35.0668 111.15 34.6974 111.876C34.3281 112.6 33.8219 113.157 33.1786 113.548C32.5385 113.935 31.8106 114.129 30.995 114.129C30.1764 114.129 29.4454 113.935 28.8022 113.548C28.1621 113.157 27.6573 112.598 27.288 111.872C26.9187 111.145 26.734 110.279 26.734 109.273C26.734 108.263 26.9187 107.397 27.288 106.674C27.6573 105.947 28.1621 105.39 28.8022 105.002C29.4454 104.612 30.1764 104.416 30.995 104.416C31.8106 104.416 32.5385 104.612 33.1786 105.002C33.8219 105.39 34.3281 105.947 34.6974 106.674C35.0668 107.397 35.2514 108.263 35.2514 109.273ZM33.8388 109.273C33.8388 108.503 33.7141 107.855 33.4648 107.329C33.2186 106.8 32.8801 106.4 32.4492 106.129C32.0214 105.855 31.5367 105.718 30.995 105.718C30.4503 105.718 29.964 105.855 29.5362 106.129C29.1084 106.4 28.7699 106.8 28.5206 107.329C28.2744 107.855 28.1513 108.503 28.1513 109.273C28.1513 110.042 28.2744 110.692 28.5206 111.221C28.7699 111.747 29.1084 112.147 29.5362 112.421C29.964 112.692 30.4503 112.827 30.995 112.827C31.5367 112.827 32.0214 112.692 32.4492 112.421C32.8801 112.147 33.2186 111.747 33.4648 111.221C33.7141 110.692 33.8388 110.042 33.8388 109.273ZM36.9191 116.659V106.909H38.2671V108.059H38.3825C38.4626 107.911 38.578 107.74 38.7288 107.546C38.8796 107.352 39.0889 107.183 39.3566 107.038C39.6244 106.891 39.9783 106.817 40.4184 106.817C40.9909 106.817 41.5017 106.961 41.9511 107.251C42.4004 107.54 42.7528 107.957 43.0083 108.502C43.2668 109.047 43.396 109.702 43.396 110.468C43.396 111.235 43.2683 111.892 43.0129 112.44C42.7574 112.984 42.4066 113.404 41.9603 113.7C41.5141 113.992 41.0047 114.138 40.4323 114.138C40.0014 114.138 39.649 114.066 39.3751 113.922C39.1043 113.777 38.8919 113.608 38.738 113.414C38.5841 113.22 38.4656 113.047 38.3825 112.897H38.2994V116.659H36.9191ZM38.2718 110.455C38.2718 110.953 38.3441 111.39 38.4887 111.766C38.6334 112.141 38.8427 112.435 39.1166 112.647C39.3905 112.857 39.7259 112.961 40.123 112.961C40.5354 112.961 40.8801 112.852 41.157 112.634C41.434 112.412 41.6433 112.112 41.7849 111.733C41.9295 111.355 42.0019 110.929 42.0019 110.455C42.0019 109.987 41.9311 109.567 41.7895 109.194C41.651 108.822 41.4417 108.528 41.1617 108.312C40.8847 108.097 40.5384 107.989 40.123 107.989C39.7229 107.989 39.3843 108.092 39.1073 108.299C38.8334 108.505 38.6257 108.793 38.4841 109.162C38.3425 109.531 38.2718 109.962 38.2718 110.455ZM48.2526 106.909V108.017H44.3794V106.909H48.2526ZM45.4181 105.21H46.7984V111.918C46.7984 112.186 46.8384 112.387 46.9184 112.523C46.9984 112.655 47.1015 112.746 47.2277 112.795C47.357 112.841 47.497 112.864 47.6478 112.864C47.7586 112.864 47.8556 112.857 47.9387 112.841C48.0218 112.826 48.0864 112.814 48.1325 112.804L48.3818 113.945C48.3018 113.975 48.1879 114.006 48.0402 114.037C47.8925 114.071 47.7078 114.089 47.4862 114.092C47.1231 114.098 46.7845 114.034 46.4706 113.898C46.1567 113.763 45.9028 113.554 45.7089 113.271C45.515 112.987 45.4181 112.632 45.4181 112.204V105.21ZM49.7795 114V106.909H51.1598V114H49.7795ZM50.4766 105.815C50.2365 105.815 50.0303 105.735 49.858 105.575C49.6887 105.412 49.604 105.218 49.604 104.993C49.604 104.766 49.6887 104.572 49.858 104.412C50.0303 104.248 50.2365 104.167 50.4766 104.167C50.7166 104.167 50.9213 104.248 51.0906 104.412C51.2629 104.572 51.3491 104.766 51.3491 104.993C51.3491 105.218 51.2629 105.412 51.0906 105.575C50.9213 105.735 50.7166 105.815 50.4766 105.815ZM56.0036 114.143C55.3389 114.143 54.7587 113.991 54.2632 113.686C53.7677 113.381 53.383 112.955 53.1091 112.407C52.8352 111.859 52.6982 111.219 52.6982 110.487C52.6982 109.751 52.8352 109.108 53.1091 108.557C53.383 108.006 53.7677 107.578 54.2632 107.274C54.7587 106.969 55.3389 106.817 56.0036 106.817C56.6684 106.817 57.2485 106.969 57.7441 107.274C58.2396 107.578 58.6243 108.006 58.8982 108.557C59.1721 109.108 59.309 109.751 59.309 110.487C59.309 111.219 59.1721 111.859 58.8982 112.407C58.6243 112.955 58.2396 113.381 57.7441 113.686C57.2485 113.991 56.6684 114.143 56.0036 114.143ZM56.0083 112.984C56.4391 112.984 56.7961 112.871 57.0793 112.643C57.3624 112.415 57.5717 112.112 57.7071 111.733C57.8456 111.355 57.9149 110.938 57.9149 110.482C57.9149 110.03 57.8456 109.614 57.7071 109.236C57.5717 108.854 57.3624 108.548 57.0793 108.317C56.7961 108.086 56.4391 107.971 56.0083 107.971C55.5743 107.971 55.2142 108.086 54.928 108.317C54.6449 108.548 54.434 108.854 54.2955 109.236C54.1601 109.614 54.0924 110.03 54.0924 110.482C54.0924 110.938 54.1601 111.355 54.2955 111.733C54.434 112.112 54.6449 112.415 54.928 112.643C55.2142 112.871 55.5743 112.984 56.0083 112.984ZM62.2301 109.79V114H60.8498V106.909H62.1747V108.063H62.2624C62.4255 107.688 62.681 107.386 63.0288 107.158C63.3796 106.931 63.8213 106.817 64.3537 106.817C64.8369 106.817 65.2601 106.918 65.6232 107.121C65.9864 107.321 66.268 107.62 66.468 108.017C66.6681 108.414 66.7681 108.905 66.7681 109.49V114H65.3878V109.656C65.3878 109.142 65.2539 108.74 64.9862 108.451C64.7184 108.159 64.3506 108.012 63.8828 108.012C63.5627 108.012 63.2781 108.082 63.0288 108.22C62.7826 108.359 62.5871 108.562 62.4425 108.83C62.3009 109.094 62.2301 109.414 62.2301 109.79ZM72.0413 114V112.966L75.2405 109.651C75.5821 109.291 75.8637 108.976 76.0853 108.705C76.31 108.431 76.4777 108.171 76.5885 107.925C76.6993 107.679 76.7547 107.417 76.7547 107.14C76.7547 106.826 76.6808 106.555 76.5331 106.327C76.3854 106.097 76.1838 105.92 75.9284 105.797C75.6729 105.67 75.3852 105.607 75.0651 105.607C74.7265 105.607 74.4311 105.676 74.1787 105.815C73.9263 105.953 73.7325 106.149 73.597 106.401C73.4616 106.654 73.3939 106.949 73.3939 107.288H72.032C72.032 106.712 72.1644 106.209 72.4291 105.778C72.6937 105.347 73.0569 105.013 73.5186 104.776C73.9802 104.536 74.5049 104.416 75.0928 104.416C75.6868 104.416 76.21 104.535 76.6624 104.772C77.1179 105.006 77.4733 105.326 77.7288 105.732C77.9842 106.135 78.1119 106.591 78.1119 107.098C78.1119 107.449 78.0458 107.792 77.9134 108.128C77.7842 108.463 77.558 108.837 77.2348 109.25C76.9117 109.659 76.4623 110.156 75.8868 110.741L74.0079 112.707V112.777H78.2643V114H72.0413Z" fill="#101828"/>
<path d="M227.667 105.5L221.251 111.917L218.334 109" stroke="#7F56D9" stroke-width="1.66667" stroke-linecap="round" stroke-linejoin="round"/>
<path d="M35.2514 145.273C35.2514 146.282 35.0668 147.15 34.6974 147.876C34.3281 148.6 33.8219 149.157 33.1786 149.548C32.5385 149.935 31.8106 150.129 30.995 150.129C30.1764 150.129 29.4454 149.935 28.8022 149.548C28.1621 149.157 27.6573 148.598 27.288 147.872C26.9187 147.145 26.734 146.279 26.734 145.273C26.734 144.263 26.9187 143.397 27.288 142.674C27.6573 141.947 28.1621 141.39 28.8022 141.002C29.4454 140.612 30.1764 140.416 30.995 140.416C31.8106 140.416 32.5385 140.612 33.1786 141.002C33.8219 141.39 34.3281 141.947 34.6974 142.674C35.0668 143.397 35.2514 144.263 35.2514 145.273ZM33.8388 145.273C33.8388 144.503 33.7141 143.855 33.4648 143.329C33.2186 142.8 32.8801 142.4 32.4492 142.129C32.0214 141.855 31.5367 141.718 30.995 141.718C30.4503 141.718 29.964 141.855 29.5362 142.129C29.1084 142.4 28.7699 142.8 28.5206 143.329C28.2744 143.855 28.1513 144.503 28.1513 145.273C28.1513 146.042 28.2744 146.692 28.5206 147.221C28.7699 147.747 29.1084 148.147 29.5362 148.421C29.964 148.692 30.4503 148.827 30.995 148.827C31.5367 148.827 32.0214 148.692 32.4492 148.421C32.8801 148.147 33.2186 147.747 33.4648 147.221C33.7141 146.692 33.8388 146.042 33.8388 145.273ZM36.9191 152.659V142.909H38.2671V144.059H38.3825C38.4626 143.911 38.578 143.74 38.7288 143.546C38.8796 143.352 39.0889 143.183 39.3566 143.038C39.6244 142.891 39.9783 142.817 40.4184 142.817C40.9909 142.817 41.5017 142.961 41.9511 143.251C42.4004 143.54 42.7528 143.957 43.0083 144.502C43.2668 145.047 43.396 145.702 43.396 146.468C43.396 147.235 43.2683 147.892 43.0129 148.44C42.7574 148.984 42.4066 149.404 41.9603 149.7C41.5141 149.992 41.0047 150.138 40.4323 150.138C40.0014 150.138 39.649 150.066 39.3751 149.922C39.1043 149.777 38.8919 149.608 38.738 149.414C38.5841 149.22 38.4656 149.047 38.3825 148.897H38.2994V152.659H36.9191ZM38.2718 146.455C38.2718 146.953 38.3441 147.39 38.4887 147.766C38.6334 148.141 38.8427 148.435 39.1166 148.647C39.3905 148.857 39.7259 148.961 40.123 148.961C40.5354 148.961 40.8801 148.852 41.157 148.634C41.434 148.412 41.6433 148.112 41.7849 147.733C41.9295 147.355 42.0019 146.929 42.0019 146.455C42.0019 145.987 41.9311 145.567 41.7895 145.194C41.651 144.822 41.4417 144.528 41.1617 144.312C40.8847 144.097 40.5384 143.989 40.123 143.989C39.7229 143.989 39.3843 144.092 39.1073 144.299C38.8334 144.505 38.6257 144.793 38.4841 145.162C38.3425 145.531 38.2718 145.962 38.2718 146.455ZM48.2526 142.909V144.017H44.3794V142.909H48.2526ZM45.4181 141.21H46.7984V147.918C46.7984 148.186 46.8384 148.387 46.9184 148.523C46.9984 148.655 47.1015 148.746 47.2277 148.795C47.357 148.841 47.497 148.864 47.6478 148.864C47.7586 148.864 47.8556 148.857 47.9387 148.841C48.0218 148.826 48.0864 148.814 48.1325 148.804L48.3818 149.945C48.3018 149.975 48.1879 150.006 48.0402 150.037C47.8925 150.071 47.7078 150.089 47.4862 150.092C47.1231 150.098 46.7845 150.034 46.4706 149.898C46.1567 149.763 45.9028 149.554 45.7089 149.271C45.515 148.987 45.4181 148.632 45.4181 148.204V141.21ZM49.7795 150V142.909H51.1598V150H49.7795ZM50.4766 141.815C50.2365 141.815 50.0303 141.735 49.858 141.575C49.6887 141.412 49.604 141.218 49.604 140.993C49.604 140.766 49.6887 140.572 49.858 140.412C50.0303 140.248 50.2365 140.167 50.4766 140.167C50.7166 140.167 50.9213 140.248 51.0906 140.412C51.2629 140.572 51.3491 140.766 51.3491 140.993C51.3491 141.218 51.2629 141.412 51.0906 141.575C50.9213 141.735 50.7166 141.815 50.4766 141.815ZM56.0036 150.143C55.3389 150.143 54.7587 149.991 54.2632 149.686C53.7677 149.381 53.383 148.955 53.1091 148.407C52.8352 147.859 52.6982 147.219 52.6982 146.487C52.6982 145.751 52.8352 145.108 53.1091 144.557C53.383 144.006 53.7677 143.578 54.2632 143.274C54.7587 142.969 55.3389 142.817 56.0036 142.817C56.6684 142.817 57.2485 142.969 57.7441 143.274C58.2396 143.578 58.6243 144.006 58.8982 144.557C59.1721 145.108 59.309 145.751 59.309 146.487C59.309 147.219 59.1721 147.859 58.8982 148.407C58.6243 148.955 58.2396 149.381 57.7441 149.686C57.2485 149.991 56.6684 150.143 56.0036 150.143ZM56.0083 148.984C56.4391 148.984 56.7961 148.871 57.0793 148.643C57.3624 148.415 57.5717 148.112 57.7071 147.733C57.8456 147.355 57.9149 146.938 57.9149 146.482C57.9149 146.03 57.8456 145.614 57.7071 145.236C57.5717 144.854 57.3624 144.548 57.0793 144.317C56.7961 144.086 56.4391 143.971 56.0083 143.971C55.5743 143.971 55.2142 144.086 54.928 144.317C54.6449 144.548 54.434 144.854 54.2955 145.236C54.1601 145.614 54.0924 146.03 54.0924 146.482C54.0924 146.938 54.1601 147.355 54.2955 147.733C54.434 148.112 54.6449 148.415 54.928 148.643C55.2142 148.871 55.5743 148.984 56.0083 148.984ZM62.2301 145.79V150H60.8498V142.909H62.1747V144.063H62.2624C62.4255 143.688 62.681 143.386 63.0288 143.158C63.3796 142.931 63.8213 142.817 64.3537 142.817C64.8369 142.817 65.2601 142.918 65.6232 143.121C65.9864 143.321 66.268 143.62 66.468 144.017C66.6681 144.414 66.7681 144.905 66.7681 145.49V150H65.3878V145.656C65.3878 145.142 65.2539 144.74 64.9862 144.451C64.7184 144.159 64.3506 144.012 63.8828 144.012C63.5627 144.012 63.2781 144.082 63.0288 144.22C62.7826 144.359 62.5871 144.562 62.4425 144.83C62.3009 145.094 62.2301 145.414 62.2301 145.79ZM75.3328 150.129C74.6988 150.129 74.1325 150.02 73.634 149.801C73.1385 149.583 72.7461 149.28 72.4568 148.892C72.1705 148.501 72.0167 148.049 71.9951 147.535H73.4447C73.4632 147.815 73.557 148.058 73.7263 148.264C73.8986 148.467 74.1233 148.624 74.4003 148.735C74.6773 148.846 74.9851 148.901 75.3236 148.901C75.696 148.901 76.0253 148.837 76.3115 148.707C76.6008 148.578 76.827 148.398 76.9901 148.167C77.1533 147.933 77.2348 147.664 77.2348 147.359C77.2348 147.042 77.1533 146.764 76.9901 146.524C76.8301 146.281 76.5947 146.09 76.2838 145.951C75.9761 145.813 75.6037 145.744 75.1666 145.744H74.368V144.58H75.1666C75.5175 144.58 75.8253 144.517 76.0899 144.391C76.3577 144.265 76.567 144.089 76.7178 143.865C76.8686 143.637 76.944 143.371 76.944 143.066C76.944 142.774 76.8778 142.52 76.7455 142.304C76.6162 142.086 76.4316 141.915 76.1915 141.792C75.9545 141.669 75.6744 141.607 75.3513 141.607C75.0435 141.607 74.7558 141.664 74.488 141.778C74.2233 141.889 74.0079 142.049 73.8417 142.258C73.6755 142.464 73.5863 142.712 73.574 143.001H72.1936C72.209 142.491 72.3598 142.041 72.646 141.653C72.9353 141.266 73.317 140.962 73.7909 140.744C74.2649 140.525 74.7912 140.416 75.3698 140.416C75.9761 140.416 76.4993 140.535 76.9394 140.772C77.3825 141.006 77.7242 141.318 77.9642 141.709C78.2074 142.1 78.3274 142.527 78.3243 142.992C78.3274 143.522 78.1797 143.971 77.8811 144.34C77.5857 144.71 77.1917 144.957 76.6993 145.083V145.157C77.3271 145.253 77.8134 145.502 78.1581 145.905C78.5059 146.308 78.6782 146.808 78.6752 147.406C78.6782 147.926 78.5336 148.392 78.2412 148.804C77.9519 149.217 77.5564 149.541 77.0548 149.778C76.5531 150.012 75.9791 150.129 75.3328 150.129Z" fill="#101828"/>
<path d="M35.2514 181.273C35.2514 182.282 35.0668 183.15 34.6974 183.876C34.3281 184.6 33.8219 185.157 33.1786 185.548C32.5385 185.935 31.8106 186.129 30.995 186.129C30.1764 186.129 29.4454 185.935 28.8022 185.548C28.1621 185.157 27.6573 184.598 27.288 183.872C26.9187 183.145 26.734 182.279 26.734 181.273C26.734 180.263 26.9187 179.397 27.288 178.674C27.6573 177.947 28.1621 177.39 28.8022 177.002C29.4454 176.612 30.1764 176.416 30.995 176.416C31.8106 176.416 32.5385 176.612 33.1786 177.002C33.8219 177.39 34.3281 177.947 34.6974 178.674C35.0668 179.397 35.2514 180.263 35.2514 181.273ZM33.8388 181.273C33.8388 180.503 33.7141 179.855 33.4648 179.329C33.2186 178.8 32.8801 178.4 32.4492 178.129C32.0214 177.855 31.5367 177.718 30.995 177.718C30.4503 177.718 29.964 177.855 29.5362 178.129C29.1084 178.4 28.7699 178.8 28.5206 179.329C28.2744 179.855 28.1513 180.503 28.1513 181.273C28.1513 182.042 28.2744 182.692 28.5206 183.221C28.7699 183.747 29.1084 184.147 29.5362 184.421C29.964 184.692 30.4503 184.827 30.995 184.827C31.5367 184.827 32.0214 184.692 32.4492 184.421C32.8801 184.147 33.2186 183.747 33.4648 183.221C33.7141 182.692 33.8388 182.042 33.8388 181.273ZM36.9191 188.659V178.909H38.2671V180.059H38.3825C38.4626 179.911 38.578 179.74 38.7288 179.546C38.8796 179.352 39.0889 179.183 39.3566 179.038C39.6244 178.891 39.9783 178.817 40.4184 178.817C40.9909 178.817 41.5017 178.961 41.9511 179.251C42.4004 179.54 42.7528 179.957 43.0083 180.502C43.2668 181.047 43.396 181.702 43.396 182.468C43.396 183.235 43.2683 183.892 43.0129 184.44C42.7574 184.984 42.4066 185.404 41.9603 185.7C41.5141 185.992 41.0047 186.138 40.4323 186.138C40.0014 186.138 39.649 186.066 39.3751 185.922C39.1043 185.777 38.8919 185.608 38.738 185.414C38.5841 185.22 38.4656 185.047 38.3825 184.897H38.2994V188.659H36.9191ZM38.2718 182.455C38.2718 182.953 38.3441 183.39 38.4887 183.766C38.6334 184.141 38.8427 184.435 39.1166 184.647C39.3905 184.857 39.7259 184.961 40.123 184.961C40.5354 184.961 40.8801 184.852 41.157 184.634C41.434 184.412 41.6433 184.112 41.7849 183.733C41.9295 183.355 42.0019 182.929 42.0019 182.455C42.0019 181.987 41.9311 181.567 41.7895 181.194C41.651 180.822 41.4417 180.528 41.1617 180.312C40.8847 180.097 40.5384 179.989 40.123 179.989C39.7229 179.989 39.3843 180.092 39.1073 180.299C38.8334 180.505 38.6257 180.793 38.4841 181.162C38.3425 181.531 38.2718 181.962 38.2718 182.455ZM48.2526 178.909V180.017H44.3794V178.909H48.2526ZM45.4181 177.21H46.7984V183.918C46.7984 184.186 46.8384 184.387 46.9184 184.523C46.9984 184.655 47.1015 184.746 47.2277 184.795C47.357 184.841 47.497 184.864 47.6478 184.864C47.7586 184.864 47.8556 184.857 47.9387 184.841C48.0218 184.826 48.0864 184.814 48.1325 184.804L48.3818 185.945C48.3018 185.975 48.1879 186.006 48.0402 186.037C47.8925 186.071 47.7078 186.089 47.4862 186.092C47.1231 186.098 46.7845 186.034 46.4706 185.898C46.1567 185.763 45.9028 185.554 45.7089 185.271C45.515 184.987 45.4181 184.632 45.4181 184.204V177.21ZM49.7795 186V178.909H51.1598V186H49.7795ZM50.4766 177.815C50.2365 177.815 50.0303 177.735 49.858 177.575C49.6887 177.412 49.604 177.218 49.604 176.993C49.604 176.766 49.6887 176.572 49.858 176.412C50.0303 176.248 50.2365 176.167 50.4766 176.167C50.7166 176.167 50.9213 176.248 51.0906 176.412C51.2629 176.572 51.3491 176.766 51.3491 176.993C51.3491 177.218 51.2629 177.412 51.0906 177.575C50.9213 177.735 50.7166 177.815 50.4766 177.815ZM56.0036 186.143C55.3389 186.143 54.7587 185.991 54.2632 185.686C53.7677 185.381 53.383 184.955 53.1091 184.407C52.8352 183.859 52.6982 183.219 52.6982 182.487C52.6982 181.751 52.8352 181.108 53.1091 180.557C53.383 180.006 53.7677 179.578 54.2632 179.274C54.7587 178.969 55.3389 178.817 56.0036 178.817C56.6684 178.817 57.2485 178.969 57.7441 179.274C58.2396 179.578 58.6243 180.006 58.8982 180.557C59.1721 181.108 59.309 181.751 59.309 182.487C59.309 183.219 59.1721 183.859 58.8982 184.407C58.6243 184.955 58.2396 185.381 57.7441 185.686C57.2485 185.991 56.6684 186.143 56.0036 186.143ZM56.0083 184.984C56.4391 184.984 56.7961 184.871 57.0793 184.643C57.3624 184.415 57.5717 184.112 57.7071 183.733C57.8456 183.355 57.9149 182.938 57.9149 182.482C57.9149 182.03 57.8456 181.614 57.7071 181.236C57.5717 180.854 57.3624 180.548 57.0793 180.317C56.7961 180.086 56.4391 179.971 56.0083 179.971C55.5743 179.971 55.2142 180.086 54.928 180.317C54.6449 180.548 54.434 180.854 54.2955 181.236C54.1601 181.614 54.0924 182.03 54.0924 182.482C54.0924 182.938 54.1601 183.355 54.2955 183.733C54.434 184.112 54.6449 184.415 54.928 184.643C55.2142 184.871 55.5743 184.984 56.0083 184.984ZM62.2301 181.79V186H60.8498V178.909H62.1747V180.063H62.2624C62.4255 179.688 62.681 179.386 63.0288 179.158C63.3796 178.931 63.8213 178.817 64.3537 178.817C64.8369 178.817 65.2601 178.918 65.6232 179.121C65.9864 179.321 66.268 179.62 66.468 180.017C66.6681 180.414 66.7681 180.905 66.7681 181.49V186H65.3878V181.656C65.3878 181.142 65.2539 180.74 64.9862 180.451C64.7184 180.159 64.3506 180.012 63.8828 180.012C63.5627 180.012 63.2781 180.082 63.0288 180.22C62.7826 180.359 62.5871 180.562 62.4425 180.83C62.3009 181.094 62.2301 181.414 62.2301 181.79ZM71.8428 184.153V182.999L75.9284 176.545H76.8378V178.244H76.2607L73.3385 182.87V182.944H78.9383V184.153H71.8428ZM76.3254 186V183.803L76.3346 183.276V176.545H77.6872V186H76.3254Z" fill="#101828"/>
<path d="M35.2514 217.273C35.2514 218.282 35.0668 219.15 34.6974 219.876C34.3281 220.6 33.8219 221.157 33.1786 221.548C32.5385 221.935 31.8106 222.129 30.995 222.129C30.1764 222.129 29.4454 221.935 28.8022 221.548C28.1621 221.157 27.6573 220.598 27.288 219.872C26.9187 219.145 26.734 218.279 26.734 217.273C26.734 216.263 26.9187 215.397 27.288 214.674C27.6573 213.947 28.1621 213.39 28.8022 213.002C29.4454 212.612 30.1764 212.416 30.995 212.416C31.8106 212.416 32.5385 212.612 33.1786 213.002C33.8219 213.39 34.3281 213.947 34.6974 214.674C35.0668 215.397 35.2514 216.263 35.2514 217.273ZM33.8388 217.273C33.8388 216.503 33.7141 215.855 33.4648 215.329C33.2186 214.8 32.8801 214.4 32.4492 214.129C32.0214 213.855 31.5367 213.718 30.995 213.718C30.4503 213.718 29.964 213.855 29.5362 214.129C29.1084 214.4 28.7699 214.8 28.5206 215.329C28.2744 215.855 28.1513 216.503 28.1513 217.273C28.1513 218.042 28.2744 218.692 28.5206 219.221C28.7699 219.747 29.1084 220.147 29.5362 220.421C29.964 220.692 30.4503 220.827 30.995 220.827C31.5367 220.827 32.0214 220.692 32.4492 220.421C32.8801 220.147 33.2186 219.747 33.4648 219.221C33.7141 218.692 33.8388 218.042 33.8388 217.273ZM36.9191 224.659V214.909H38.2671V216.059H38.3825C38.4626 215.911 38.578 215.74 38.7288 215.546C38.8796 215.352 39.0889 215.183 39.3566 215.038C39.6244 214.891 39.9783 214.817 40.4184 214.817C40.9909 214.817 41.5017 214.961 41.9511 215.251C42.4004 215.54 42.7528 215.957 43.0083 216.502C43.2668 217.047 43.396 217.702 43.396 218.468C43.396 219.235 43.2683 219.892 43.0129 220.44C42.7574 220.984 42.4066 221.404 41.9603 221.7C41.5141 221.992 41.0047 222.138 40.4323 222.138C40.0014 222.138 39.649 222.066 39.3751 221.922C39.1043 221.777 38.8919 221.608 38.738 221.414C38.5841 221.22 38.4656 221.047 38.3825 220.897H38.2994V224.659H36.9191ZM38.2718 218.455C38.2718 218.953 38.3441 219.39 38.4887 219.766C38.6334 220.141 38.8427 220.435 39.1166 220.647C39.3905 220.857 39.7259 220.961 40.123 220.961C40.5354 220.961 40.8801 220.852 41.157 220.634C41.434 220.412 41.6433 220.112 41.7849 219.733C41.9295 219.355 42.0019 218.929 42.0019 218.455C42.0019 217.987 41.9311 217.567 41.7895 217.194C41.651 216.822 41.4417 216.528 41.1617 216.312C40.8847 216.097 40.5384 215.989 40.123 215.989C39.7229 215.989 39.3843 216.092 39.1073 216.299C38.8334 216.505 38.6257 216.793 38.4841 217.162C38.3425 217.531 38.2718 217.962 38.2718 218.455ZM48.2526 214.909V216.017H44.3794V214.909H48.2526ZM45.4181 213.21H46.7984V219.918C46.7984 220.186 46.8384 220.387 46.9184 220.523C46.9984 220.655 47.1015 220.746 47.2277 220.795C47.357 220.841 47.497 220.864 47.6478 220.864C47.7586 220.864 47.8556 220.857 47.9387 220.841C48.0218 220.826 48.0864 220.814 48.1325 220.804L48.3818 221.945C48.3018 221.975 48.1879 222.006 48.0402 222.037C47.8925 222.071 47.7078 222.089 47.4862 222.092C47.1231 222.098 46.7845 222.034 46.4706 221.898C46.1567 221.763 45.9028 221.554 45.7089 221.271C45.515 220.987 45.4181 220.632 45.4181 220.204V213.21ZM49.7795 222V214.909H51.1598V222H49.7795ZM50.4766 213.815C50.2365 213.815 50.0303 213.735 49.858 213.575C49.6887 213.412 49.604 213.218 49.604 212.993C49.604 212.766 49.6887 212.572 49.858 212.412C50.0303 212.248 50.2365 212.167 50.4766 212.167C50.7166 212.167 50.9213 212.248 51.0906 212.412C51.2629 212.572 51.3491 212.766 51.3491 212.993C51.3491 213.218 51.2629 213.412 51.0906 213.575C50.9213 213.735 50.7166 213.815 50.4766 213.815ZM56.0036 222.143C55.3389 222.143 54.7587 221.991 54.2632 221.686C53.7677 221.381 53.383 220.955 53.1091 220.407C52.8352 219.859 52.6982 219.219 52.6982 218.487C52.6982 217.751 52.8352 217.108 53.1091 216.557C53.383 216.006 53.7677 215.578 54.2632 215.274C54.7587 214.969 55.3389 214.817 56.0036 214.817C56.6684 214.817 57.2485 214.969 57.7441 215.274C58.2396 215.578 58.6243 216.006 58.8982 216.557C59.1721 217.108 59.309 217.751 59.309 218.487C59.309 219.219 59.1721 219.859 58.8982 220.407C58.6243 220.955 58.2396 221.381 57.7441 221.686C57.2485 221.991 56.6684 222.143 56.0036 222.143ZM56.0083 220.984C56.4391 220.984 56.7961 220.871 57.0793 220.643C57.3624 220.415 57.5717 220.112 57.7071 219.733C57.8456 219.355 57.9149 218.938 57.9149 218.482C57.9149 218.03 57.8456 217.614 57.7071 217.236C57.5717 216.854 57.3624 216.548 57.0793 216.317C56.7961 216.086 56.4391 215.971 56.0083 215.971C55.5743 215.971 55.2142 216.086 54.928 216.317C54.6449 216.548 54.434 216.854 54.2955 217.236C54.1601 217.614 54.0924 218.03 54.0924 218.482C54.0924 218.938 54.1601 219.355 54.2955 219.733C54.434 220.112 54.6449 220.415 54.928 220.643C55.2142 220.871 55.5743 220.984 56.0083 220.984ZM62.2301 217.79V222H60.8498V214.909H62.1747V216.063H62.2624C62.4255 215.688 62.681 215.386 63.0288 215.158C63.3796 214.931 63.8213 214.817 64.3537 214.817C64.8369 214.817 65.2601 214.918 65.6232 215.121C65.9864 215.321 66.268 215.62 66.468 216.017C66.6681 216.414 66.7681 216.905 66.7681 217.49V222H65.3878V217.656C65.3878 217.142 65.2539 216.74 64.9862 216.451C64.7184 216.159 64.3506 216.012 63.8828 216.012C63.5627 216.012 63.2781 216.082 63.0288 216.22C62.7826 216.359 62.5871 216.562 62.4425 216.83C62.3009 217.094 62.2301 217.414 62.2301 217.79ZM75.162 222.129C74.5834 222.129 74.0633 222.018 73.6017 221.797C73.1431 221.572 72.7768 221.264 72.5029 220.874C72.229 220.483 72.0828 220.036 72.0644 219.535H73.4493C73.4832 219.941 73.6632 220.275 73.9894 220.537C74.3157 220.798 74.7065 220.929 75.162 220.929C75.5252 220.929 75.8468 220.846 76.1269 220.68C76.41 220.51 76.6316 220.278 76.7916 219.983C76.9548 219.687 77.0363 219.35 77.0363 218.972C77.0363 218.587 76.9532 218.244 76.787 217.942C76.6208 217.641 76.3915 217.404 76.0992 217.231C75.8099 217.059 75.4775 216.971 75.102 216.968C74.8158 216.968 74.528 217.017 74.2387 217.116C73.9494 217.214 73.7155 217.344 73.537 217.504L72.2306 217.31L72.7615 212.545H77.9596V213.769H73.9479L73.6478 216.414H73.7032C73.8879 216.236 74.1325 216.086 74.4372 215.966C74.745 215.846 75.0743 215.786 75.4252 215.786C76.0007 215.786 76.5131 215.923 76.9624 216.197C77.4149 216.471 77.7703 216.845 78.0289 217.319C78.2905 217.79 78.4197 218.331 78.4166 218.944C78.4197 219.556 78.2812 220.103 78.0012 220.583C77.7242 221.063 77.3395 221.441 76.847 221.718C76.3577 221.992 75.796 222.129 75.162 222.129Z" fill="#101828"/>
</g>
<rect x="12.5" y="51.5" width="231" height="189" rx="3.5" stroke="#F2F4F7"/>
</g>
<g filter="url(#filter1_dd_1943_29480)">
<rect x="12" y="2" width="232" height="36" rx="4" fill="white"/>
<path d="M30.0994 25H27.0387V15.5455H30.1964C31.1228 15.5455 31.9183 15.7347 32.5831 16.1133C33.2479 16.4888 33.7572 17.0289 34.1112 17.7337C34.4682 18.4354 34.6467 19.2771 34.6467 20.2589C34.6467 21.2437 34.4666 22.0901 34.1065 22.7979C33.7495 23.5058 33.2325 24.0505 32.5554 24.4322C31.8783 24.8107 31.0597 25 30.0994 25ZM28.4652 23.7536H30.021C30.7411 23.7536 31.3397 23.6181 31.8168 23.3473C32.2938 23.0734 32.6508 22.6779 32.8878 22.1609C33.1248 21.6407 33.2433 21.0067 33.2433 20.2589C33.2433 19.5172 33.1248 18.8878 32.8878 18.3707C32.6539 17.8537 32.3046 17.4613 31.8398 17.1935C31.3751 16.9258 30.7981 16.7919 30.1087 16.7919H28.4652V23.7536ZM36.3097 25V17.9091H37.6439V19.0355H37.7178C37.847 18.6539 38.0748 18.3538 38.401 18.1353C38.7303 17.9137 39.1027 17.8029 39.5182 17.8029C39.6044 17.8029 39.7059 17.806 39.8229 17.8121C39.9429 17.8183 40.0368 17.826 40.1045 17.8352V19.1555C40.0491 19.1402 39.9506 19.1232 39.809 19.1048C39.6675 19.0832 39.5259 19.0724 39.3843 19.0724C39.0581 19.0724 38.7673 19.1417 38.5118 19.2802C38.2594 19.4156 38.0594 19.6049 37.9117 19.848C37.7639 20.0881 37.6901 20.362 37.6901 20.6697V25H36.3097ZM44.032 25.1431C43.3672 25.1431 42.7871 24.9908 42.2915 24.6861C41.796 24.3814 41.4113 23.9551 41.1374 23.4073C40.8635 22.8595 40.7266 22.2193 40.7266 21.4869C40.7266 20.7513 40.8635 20.1081 41.1374 19.5572C41.4113 19.0063 41.796 18.5785 42.2915 18.2738C42.7871 17.9691 43.3672 17.8168 44.032 17.8168C44.6967 17.8168 45.2769 17.9691 45.7724 18.2738C46.2679 18.5785 46.6526 19.0063 46.9265 19.5572C47.2004 20.1081 47.3374 20.7513 47.3374 21.4869C47.3374 22.2193 47.2004 22.8595 46.9265 23.4073C46.6526 23.9551 46.2679 24.3814 45.7724 24.6861C45.2769 24.9908 44.6967 25.1431 44.032 25.1431ZM44.0366 23.9844C44.4674 23.9844 44.8245 23.8705 45.1076 23.6428C45.3907 23.415 45.6 23.1119 45.7354 22.7333C45.8739 22.3548 45.9432 21.9377 45.9432 21.4822C45.9432 21.0298 45.8739 20.6143 45.7354 20.2358C45.6 19.8542 45.3907 19.5479 45.1076 19.3171C44.8245 19.0863 44.4674 18.9709 44.0366 18.9709C43.6026 18.9709 43.2425 19.0863 42.9563 19.3171C42.6732 19.5479 42.4624 19.8542 42.3239 20.2358C42.1884 20.6143 42.1207 21.0298 42.1207 21.4822C42.1207 21.9377 42.1884 22.3548 42.3239 22.7333C42.4624 23.1119 42.6732 23.415 42.9563 23.6428C43.2425 23.8705 43.6026 23.9844 44.0366 23.9844ZM48.8781 27.6591V17.9091H50.2261V19.0586H50.3415C50.4215 18.9109 50.537 18.7401 50.6878 18.5462C50.8386 18.3523 51.0479 18.183 51.3156 18.0384C51.5834 17.8906 51.9373 17.8168 52.3774 17.8168C52.9498 17.8168 53.4607 17.9614 53.9101 18.2507C54.3594 18.54 54.7118 18.957 54.9672 19.5018C55.2258 20.0465 55.355 20.7021 55.355 21.4684C55.355 22.2347 55.2273 22.8918 54.9719 23.4396C54.7164 23.9844 54.3656 24.4045 53.9193 24.6999C53.473 24.9923 52.9637 25.1385 52.3912 25.1385C51.9604 25.1385 51.608 25.0662 51.3341 24.9215C51.0632 24.7769 50.8509 24.6076 50.697 24.4137C50.5431 24.2198 50.4246 24.0475 50.3415 23.8967H50.2584V27.6591H48.8781ZM50.2307 21.4545C50.2307 21.9531 50.3031 22.3902 50.4477 22.7656C50.5924 23.1411 50.8016 23.435 51.0756 23.6474C51.3495 23.8567 51.6849 23.9613 52.0819 23.9613C52.4943 23.9613 52.839 23.852 53.116 23.6335C53.393 23.4119 53.6023 23.1119 53.7439 22.7333C53.8885 22.3548 53.9608 21.9285 53.9608 21.4545C53.9608 20.9867 53.8901 20.5666 53.7485 20.1942C53.61 19.8219 53.4007 19.5279 53.1206 19.3125C52.8437 19.0971 52.4974 18.9893 52.0819 18.9893C51.6818 18.9893 51.3433 19.0924 51.0663 19.2987C50.7924 19.5049 50.5847 19.7926 50.4431 20.1619C50.3015 20.5312 50.2307 20.9621 50.2307 21.4545ZM59.556 25.1385C58.9836 25.1385 58.4727 24.9923 58.0233 24.6999C57.5771 24.4045 57.2262 23.9844 56.9708 23.4396C56.7184 22.8918 56.5922 22.2347 56.5922 21.4684C56.5922 20.7021 56.72 20.0465 56.9754 19.5018C57.2339 18.957 57.5879 18.54 58.0372 18.2507C58.4865 17.9614 58.9959 17.8168 59.5653 17.8168C60.0054 17.8168 60.3593 17.8906 60.627 18.0384C60.8979 18.183 61.1072 18.3523 61.2549 18.5462C61.4057 18.7401 61.5226 18.9109 61.6057 19.0586H61.6888V15.5455H63.0692V25H61.7211V23.8967H61.6057C61.5226 24.0475 61.4026 24.2198 61.2456 24.4137C61.0918 24.6076 60.8794 24.7769 60.6086 24.9215C60.3377 25.0662 59.9869 25.1385 59.556 25.1385ZM59.8607 23.9613C60.2577 23.9613 60.5932 23.8567 60.8671 23.6474C61.1441 23.435 61.3534 23.1411 61.4949 22.7656C61.6396 22.3902 61.7119 21.9531 61.7119 21.4545C61.7119 20.9621 61.6411 20.5312 61.4996 20.1619C61.358 19.7926 61.1502 19.5049 60.8763 19.2987C60.6024 19.0924 60.2639 18.9893 59.8607 18.9893C59.4452 18.9893 59.099 19.0971 58.822 19.3125C58.545 19.5279 58.3357 19.8219 58.1942 20.1942C58.0557 20.5666 57.9864 20.9867 57.9864 21.4545C57.9864 21.9285 58.0572 22.3548 58.1988 22.7333C58.3403 23.1119 58.5496 23.4119 58.8266 23.6335C59.1067 23.852 59.4514 23.9613 59.8607 23.9613ZM68.0261 25.1431C67.3613 25.1431 66.7812 24.9908 66.2857 24.6861C65.7902 24.3814 65.4055 23.9551 65.1316 23.4073C64.8577 22.8595 64.7207 22.2193 64.7207 21.4869C64.7207 20.7513 64.8577 20.1081 65.1316 19.5572C65.4055 19.0063 65.7902 18.5785 66.2857 18.2738C66.7812 17.9691 67.3613 17.8168 68.0261 17.8168C68.6909 17.8168 69.271 17.9691 69.7665 18.2738C70.262 18.5785 70.6467 19.0063 70.9206 19.5572C71.1945 20.1081 71.3315 20.7513 71.3315 21.4869C71.3315 22.2193 71.1945 22.8595 70.9206 23.4073C70.6467 23.9551 70.262 24.3814 69.7665 24.6861C69.271 24.9908 68.6909 25.1431 68.0261 25.1431ZM68.0307 23.9844C68.4616 23.9844 68.8186 23.8705 69.1017 23.6428C69.3849 23.415 69.5942 23.1119 69.7296 22.7333C69.8681 22.3548 69.9373 21.9377 69.9373 21.4822C69.9373 21.0298 69.8681 20.6143 69.7296 20.2358C69.5942 19.8542 69.3849 19.5479 69.1017 19.3171C68.8186 19.0863 68.4616 18.9709 68.0307 18.9709C67.5968 18.9709 67.2367 19.0863 66.9505 19.3171C66.6673 19.5479 66.4565 19.8542 66.318 20.2358C66.1826 20.6143 66.1149 21.0298 66.1149 21.4822C66.1149 21.9377 66.1826 22.3548 66.318 22.7333C66.4565 23.1119 66.6673 23.415 66.9505 23.6428C67.2367 23.8705 67.5968 23.9844 68.0307 23.9844ZM74.1937 25L72.1071 17.9091H73.5336L74.9231 23.1165H74.9924L76.3865 17.9091H77.813L79.198 23.0934H79.2672L80.6475 17.9091H82.074L79.992 25H78.584L77.1436 19.8803H77.0375L75.5971 25H74.1937ZM84.7643 20.7898V25H83.384V17.9091H84.7089V19.0632H84.7966C84.9597 18.6877 85.2152 18.3861 85.5629 18.1584C85.9138 17.9306 86.3554 17.8168 86.8879 17.8168C87.3711 17.8168 87.7942 17.9183 88.1574 18.1214C88.5206 18.3215 88.8022 18.62 89.0022 19.017C89.2023 19.4141 89.3023 19.9049 89.3023 20.4897V25H87.922V20.6559C87.922 20.1419 87.7881 19.7403 87.5203 19.451C87.2526 19.1586 86.8848 19.0124 86.417 19.0124C86.0969 19.0124 85.8122 19.0817 85.5629 19.2202C85.3167 19.3587 85.1213 19.5618 84.9767 19.8295C84.8351 20.0942 84.7643 20.4143 84.7643 20.7898Z" fill="#101828"/>
<path d="M226.5 21.75L223 18.25L219.5 21.75" stroke="#667085" stroke-width="1.66667" stroke-linecap="round" stroke-linejoin="round"/>
<rect x="12.25" y="2.25" width="231.5" height="35.5" rx="3.75" stroke="#D6BBFB" stroke-width="0.5"/>
</g>
<defs>
<filter id="filter0_dd_1943_29480" x="0" y="51" width="256" height="214" filterUnits="userSpaceOnUse" color-interpolation-filters="sRGB">
<feFlood flood-opacity="0" result="BackgroundImageFix"/>
<feColorMatrix in="SourceAlpha" type="matrix" values="0 0 0 0 0 0 0 0 0 0 0 0 0 0 0 0 0 0 127 0" result="hardAlpha"/>
<feMorphology radius="2" operator="erode" in="SourceAlpha" result="effect1_dropShadow_1943_29480"/>
<feOffset dy="4"/>
<feGaussianBlur stdDeviation="3"/>
<feColorMatrix type="matrix" values="0 0 0 0 0.0627451 0 0 0 0 0.0941176 0 0 0 0 0.156863 0 0 0 0.03 0"/>
<feBlend mode="normal" in2="BackgroundImageFix" result="effect1_dropShadow_1943_29480"/>
<feColorMatrix in="SourceAlpha" type="matrix" values="0 0 0 0 0 0 0 0 0 0 0 0 0 0 0 0 0 0 127 0" result="hardAlpha"/>
<feMorphology radius="4" operator="erode" in="SourceAlpha" result="effect2_dropShadow_1943_29480"/>
<feOffset dy="12"/>
<feGaussianBlur stdDeviation="8"/>
<feColorMatrix type="matrix" values="0 0 0 0 0.0627451 0 0 0 0 0.0941176 0 0 0 0 0.156863 0 0 0 0.08 0"/>
<feBlend mode="normal" in2="effect1_dropShadow_1943_29480" result="effect2_dropShadow_1943_29480"/>
<feBlend mode="normal" in="SourceGraphic" in2="effect2_dropShadow_1943_29480" result="shape"/>
</filter>
<filter id="filter1_dd_1943_29480" x="10" y="0" width="236" height="41" filterUnits="userSpaceOnUse" color-interpolation-filters="sRGB">
<feFlood flood-opacity="0" result="BackgroundImageFix"/>
<feColorMatrix in="SourceAlpha" type="matrix" values="0 0 0 0 0 0 0 0 0 0 0 0 0 0 0 0 0 0 127 0" result="hardAlpha"/>
<feMorphology radius="2" operator="dilate" in="SourceAlpha" result="effect1_dropShadow_1943_29480"/>
<feOffset/>
<feColorMatrix type="matrix" values="0 0 0 0 0.956863 0 0 0 0 0.921569 0 0 0 0 1 0 0 0 1 0"/>
<feBlend mode="normal" in2="BackgroundImageFix" result="effect1_dropShadow_1943_29480"/>
<feColorMatrix in="SourceAlpha" type="matrix" values="0 0 0 0 0 0 0 0 0 0 0 0 0 0 0 0 0 0 127 0" result="hardAlpha"/>
<feOffset dy="1"/>
<feGaussianBlur stdDeviation="1"/>
<feColorMatrix type="matrix" values="0 0 0 0 0.0627451 0 0 0 0 0.0941176 0 0 0 0 0.156863 0 0 0 0.05 0"/>
<feBlend mode="normal" in2="effect1_dropShadow_1943_29480" result="effect2_dropShadow_1943_29480"/>
<feBlend mode="normal" in="SourceGraphic" in2="effect2_dropShadow_1943_29480" result="shape"/>
</filter>
<clipPath id="clip0_1943_29480">
<rect x="12" y="51" width="232" height="190" rx="4" fill="white"/>
</clipPath>
</defs>
</svg>
