<svg width="50" height="50" viewBox="0 0 50 50" fill="none" xmlns="http://www.w3.org/2000/svg">
<g clip-path="url(#clip0_1929_25833)">
<rect width="50" height="50" rx="25" fill="white"/>
<g clip-path="url(#clip1_1929_25833)">
<path d="M50 0H0V50H50V0Z" fill="white"/>
<path d="M50.025 0H0.0250244V50H50.025V0Z" fill="url(#paint0_linear_1929_25833)"/>
<path d="M50.025 0H0.0250244V50H50.025V0Z" fill="url(#paint1_linear_1929_25833)"/>
<path d="M50.025 0H0.0250244V50H50.025V0Z" fill="url(#paint2_linear_1929_25833)"/>
<path d="M50.025 0H0.0250244V50H50.025V0Z" fill="url(#paint3_linear_1929_25833)"/>
<path d="M50.025 0H0.0250244V50H50.025V0Z" fill="url(#paint4_linear_1929_25833)"/>
</g>
<mask id="mask0_1929_25833" style="mask-type:alpha" maskUnits="userSpaceOnUse" x="0" y="0" width="50" height="50">
<circle cx="25" cy="25" r="25" fill="#C4C4C4"/>
</mask>
<g mask="url(#mask0_1929_25833)">
<ellipse cx="24.9998" cy="44" rx="19" ry="11" fill="white" fill-opacity="0.7"/>
</g>
<circle cx="24.9999" cy="21.25" r="9" fill="white" fill-opacity="0.7"/>
</g>
<defs>
<linearGradient id="paint0_linear_1929_25833" x1="41.225" y1="3.475" x2="13.0751" y2="50" gradientUnits="userSpaceOnUse">
<stop stop-color="#E495FF"/>
<stop offset="0.510417" stop-color="#EBABFF"/>
<stop offset="1" stop-color="#BFA1FF"/>
</linearGradient>
<linearGradient id="paint1_linear_1929_25833" x1="5.175" y1="44.95" x2="22.35" y2="28.625" gradientUnits="userSpaceOnUse">
<stop stop-color="#8C9BFF"/>
<stop offset="0.963542" stop-color="#8C9BFF" stop-opacity="0"/>
</linearGradient>
<linearGradient id="paint2_linear_1929_25833" x1="52.125" y1="35.675" x2="40.4251" y2="21.575" gradientUnits="userSpaceOnUse">
<stop stop-color="#DFFEFE" stop-opacity="0.9"/>
<stop offset="1" stop-color="#DFFEFE" stop-opacity="0"/>
</linearGradient>
<linearGradient id="paint3_linear_1929_25833" x1="43.55" y1="6" x2="28.775" y2="20.975" gradientUnits="userSpaceOnUse">
<stop stop-color="#E167FF"/>
<stop offset="1" stop-color="#E167FF" stop-opacity="0"/>
</linearGradient>
<linearGradient id="paint4_linear_1929_25833" x1="6.45" y1="2.125" x2="25.05" y2="17.15" gradientUnits="userSpaceOnUse">
<stop stop-color="#F08DFF"/>
<stop offset="1" stop-color="#F08DFF" stop-opacity="0"/>
</linearGradient>
<clipPath id="clip0_1929_25833">
<rect width="50" height="50" rx="25" fill="white"/>
</clipPath>
<clipPath id="clip1_1929_25833">
<rect width="50" height="50" fill="white"/>
</clipPath>
</defs>
</svg>
