<svg width="31" height="34" viewBox="0 0 31 34" fill="none" xmlns="http://www.w3.org/2000/svg">
<path d="M29.4786 13.64L20.2866 18.7031V9.61206L29.4786 13.64Z" fill="#1A73EA"/>
<path d="M20.2856 9.61206V18.7031L9.95264 24.3911V15.3L20.2856 9.61206Z" fill="#6C72DC"/>
<path d="M30.2398 21.5701L7.10938 33.9999V25.9548L9.95327 24.3913L20.2862 18.7034L20.5082 18.7677L30.2398 21.5701Z" fill="#004BE9"/>
<path d="M29.4786 13.64L20.2866 18.7031L20.5086 18.7675L30.2402 21.5699L29.4786 13.64Z" fill="#1A7AF6"/>
<path d="M9.95461 15.3002V24.3912L0.759766 20.3606L9.95461 15.3002Z" fill="#6C7EE8"/>
<path d="M9.73155 15.2316L0 12.4292L0.761551 20.3592L9.95636 15.2987L9.73155 15.2316Z" fill="#93AAFD"/>
<path d="M23.1303 0V8.04525L20.2865 9.61134L9.95358 15.2994L9.73155 15.2349L0 12.4325L23.1303 0Z" fill="#2CDAFF"/>
<path d="M9.95264 15.3L20.2856 18.7031V9.61206L9.95264 15.3Z" fill="#1A62C5"/>
</svg>
